<svg xmlns="http://www.w3.org/2000/svg" width="960" height="500"><defs><style type="text/css">
.background {
  fill: white;
}

text {
  font-size: 14px;
  font-family: sans-serif;
}

.axis-path,
.axis-line {
  fill: none;
  stroke: #000;
  stroke-width: 1px;
  shape-rendering: crispEdges;
}

.line {
  fill: none;
  stroke-width: 1.5px;
}

.data-series-0 {
  stroke: steelblue;
  fill: steelblue;
}

.data-series-1 {
  stroke: crimson;
  fill: crimson;
}

.data-series-2 {
  stroke: mediumseagreen;
  fill: mediumseagreen;
}

.data-series-3 {
  stroke: mediumslateblue;
  fill: mediumslateblue;
}

.data-series-4 {
  stroke: goldenrod;
  fill: goldenrod;
}

.error-bar {
  fill: none;
}
</style></defs><rect width="960" height="500" class="background"/><g transform="translate(80,40)"><g transform="translate(420, 0)"><text style="text-anchor: middle; font-size: 28px;">Left associated binds (1 input per size)</text></g><g class="x axis" transform="translate(0,400)"><g class="tick" transform="translate(0,0)" style="opacity: 1;"><line y2="6" x2="0" class="axis-line"/><text dy=".71em" y="9" x="0" style="text-anchor: middle;">100,000</text></g><g class="tick" transform="translate(70,0)" style="opacity: 1;"><line y2="6" x2="0" class="axis-line"/><text dy=".71em" y="9" x="0" style="text-anchor: middle;">150,000</text></g><g class="tick" transform="translate(140,0)" style="opacity: 1;"><line y2="6" x2="0" class="axis-line"/><text dy=".71em" y="9" x="0" style="text-anchor: middle;">200,000</text></g><g class="tick" transform="translate(210,0)" style="opacity: 1;"><line y2="6" x2="0" class="axis-line"/><text dy=".71em" y="9" x="0" style="text-anchor: middle;">250,000</text></g><g class="tick" transform="translate(280,0)" style="opacity: 1;"><line y2="6" x2="0" class="axis-line"/><text dy=".71em" y="9" x="0" style="text-anchor: middle;">300,000</text></g><g class="tick" transform="translate(350,0)" style="opacity: 1;"><line y2="6" x2="0" class="axis-line"/><text dy=".71em" y="9" x="0" style="text-anchor: middle;">350,000</text></g><g class="tick" transform="translate(420,0)" style="opacity: 1;"><line y2="6" x2="0" class="axis-line"/><text dy=".71em" y="9" x="0" style="text-anchor: middle;">400,000</text></g><g class="tick" transform="translate(490.00000000000006,0)" style="opacity: 1;"><line y2="6" x2="0" class="axis-line"/><text dy=".71em" y="9" x="0" style="text-anchor: middle;">450,000</text></g><g class="tick" transform="translate(560,0)" style="opacity: 1;"><line y2="6" x2="0" class="axis-line"/><text dy=".71em" y="9" x="0" style="text-anchor: middle;">500,000</text></g><g class="tick" transform="translate(630,0)" style="opacity: 1;"><line y2="6" x2="0" class="axis-line"/><text dy=".71em" y="9" x="0" style="text-anchor: middle;">550,000</text></g><g class="tick" transform="translate(700,0)" style="opacity: 1;"><line y2="6" x2="0" class="axis-line"/><text dy=".71em" y="9" x="0" style="text-anchor: middle;">600,000</text></g><g class="tick" transform="translate(770,0)" style="opacity: 1;"><line y2="6" x2="0" class="axis-line"/><text dy=".71em" y="9" x="0" style="text-anchor: middle;">650,000</text></g><g class="tick" transform="translate(840,0)" style="opacity: 1;"><line y2="6" x2="0" class="axis-line"/><text dy=".71em" y="9" x="0" style="text-anchor: middle;">700,000</text></g><path class="axis-path" d="M0,6V0H840V6"/><text x="420" y="40" style="text-anchor: middle;">Number of binds</text></g><g class="y axis"><g class="tick" transform="translate(0,354.2853405741372)" style="opacity: 1;"><line x2="-6" y2="0" class="axis-line"/><text dy=".32em" x="-9" y="0" style="text-anchor: end;">1.00</text></g><g class="tick" transform="translate(0,298.4375518665371)" style="opacity: 1;"><line x2="-6" y2="0" class="axis-line"/><text dy=".32em" x="-9" y="0" style="text-anchor: end;">2.00</text></g><g class="tick" transform="translate(0,242.58976315893693)" style="opacity: 1;"><line x2="-6" y2="0" class="axis-line"/><text dy=".32em" x="-9" y="0" style="text-anchor: end;">3.00</text></g><g class="tick" transform="translate(0,186.74197445133674)" style="opacity: 1;"><line x2="-6" y2="0" class="axis-line"/><text dy=".32em" x="-9" y="0" style="text-anchor: end;">4.00</text></g><g class="tick" transform="translate(0,130.89418574373656)" style="opacity: 1;"><line x2="-6" y2="0" class="axis-line"/><text dy=".32em" x="-9" y="0" style="text-anchor: end;">5.00</text></g><g class="tick" transform="translate(0,75.0463970361364)" style="opacity: 1;"><line x2="-6" y2="0" class="axis-line"/><text dy=".32em" x="-9" y="0" style="text-anchor: end;">6.00</text></g><g class="tick" transform="translate(0,19.19860832853626)" style="opacity: 1;"><line x2="-6" y2="0" class="axis-line"/><text dy=".32em" x="-9" y="0" style="text-anchor: end;">7.00</text></g><path class="axis-path" d="M-6,0H0V400H-6"/><text transform="rotate(-90)" y="6" dy=".71em" style="text-anchor: end;">Mean running time (seconds)</text></g><g class="data-series-0"><circle cx="0" cy="374.1162304956015" r="3"/><circle cx="140" cy="336.17932652180616" r="3"/><circle cx="280" cy="271.69690131706534" r="3"/><circle cx="420" cy="243.48731957714324" r="3"/><circle cx="560" cy="197.93832694544892" r="3"/><circle cx="700" cy="127.45854219287409" r="3"/><circle cx="840" cy="0" r="3"/><path class="error-bar" x="0" y="374.1162304956015" d="M 0 374.1162304956015 V 368.7317145636358 h -3 h 6 h -3 V 379.50074642756715 h -3 h 6"/><path class="error-bar" x="140" y="336.17932652180616" d="M 140 336.17932652180616 V 324.51090209462154 h -3 h 6 h -3 V 347.8477509489908 h -3 h 6"/><path class="error-bar" x="280" y="271.69690131706534" d="M 280 271.69690131706534 V 263.9314702164316 h -3 h 6 h -3 V 279.4623324176991 h -3 h 6"/><path class="error-bar" x="420" y="243.48731957714324" d="M 420 243.48731957714324 V 216.61606999832355 h -3 h 6 h -3 V 270.35856915596304 h -3 h 6"/><path class="error-bar" x="560" y="197.93832694544892" d="M 560 197.93832694544892 V 180.33637727356643 h -3 h 6 h -3 V 215.54027661733136 h -3 h 6"/><path class="error-bar" x="700" y="127.45854219287409" d="M 700 127.45854219287409 V 117.25933942612676 h -3 h 6 h -3 V 137.65774495962145 h -3 h 6"/><path class="error-bar" x="840" y="0" d="M 840 0 V -41.408538884468356 h -3 h 6 h -3 V 41.408538884468314 h -3 h 6"/><path class="line" d="M0,374.1162304956015L140,336.17932652180616L280,271.69690131706534L420,243.48731957714324L560,197.93832694544892L700,127.45854219287409L840,0"/></g><g class="data-series-1"><circle cx="0" cy="400" r="3"/><circle cx="140" cy="390.08093630666497" r="3"/><circle cx="280" cy="379.5927987910223" r="3"/><circle cx="420" cy="366.3482500990561" r="3"/><circle cx="560" cy="358.2981279833911" r="3"/><circle cx="700" cy="348.90263356323766" r="3"/><circle cx="840" cy="335.42725775756657" r="3"/><path class="error-bar" x="0" y="400" d="M 0 400 V 399.76649001970594 h -3 h 6 h -3 V 400.23350998029406 h -3 h 6"/><path class="error-bar" x="140" y="390.08093630666497" d="M 140 390.08093630666497 V 389.5063393052891 h -3 h 6 h -3 V 390.6555333080408 h -3 h 6"/><path class="error-bar" x="280" y="379.5927987910223" d="M 280 379.5927987910223 V 378.825831748404 h -3 h 6 h -3 V 380.35976583364055 h -3 h 6"/><path class="error-bar" x="420" y="366.3482500990561" d="M 420 366.3482500990561 V 364.10413293023333 h -3 h 6 h -3 V 368.59236726787884 h -3 h 6"/><path class="error-bar" x="560" y="358.2981279833911" d="M 560 358.2981279833911 V 355.5405193536381 h -3 h 6 h -3 V 361.05573661314406 h -3 h 6"/><path class="error-bar" x="700" y="348.90263356323766" d="M 700 348.90263356323766 V 345.7994973650846 h -3 h 6 h -3 V 352.00576976139064 h -3 h 6"/><path class="error-bar" x="840" y="335.42725775756657" d="M 840 335.42725775756657 V 329.4537416339428 h -3 h 6 h -3 V 341.4007738811903 h -3 h 6"/><path class="line" d="M0,400L140,390.08093630666497L280,379.5927987910223L420,366.3482500990561L560,358.2981279833911L700,348.90263356323766L840,335.42725775756657"/></g><g class="legend" transform="translate(50, 50)"><rect x="0" y="0" width="15" height="15" class="data-series-0"/><rect x="0" y="20" width="15" height="15" class="data-series-1"/><text x="24" y="13">Original FreeT</text><text x="24" y="33">Codensity FreeT</text></g></g></svg>