<svg xmlns="http://www.w3.org/2000/svg" width="960" height="500"><defs><style type="text/css">
.background {
  fill: white;
}

text {
  font-size: 14px;
  font-family: sans-serif;
}

.axis-path,
.axis-line {
  fill: none;
  stroke: #000;
  stroke-width: 1px;
  shape-rendering: crispEdges;
}

.line {
  fill: none;
  stroke-width: 1.5px;
}

.data-series-0 {
  stroke: steelblue;
  fill: steelblue;
}

.data-series-1 {
  stroke: crimson;
  fill: crimson;
}

.data-series-2 {
  stroke: mediumseagreen;
  fill: mediumseagreen;
}

.data-series-3 {
  stroke: mediumslateblue;
  fill: mediumslateblue;
}

.data-series-4 {
  stroke: goldenrod;
  fill: goldenrod;
}

.error-bar {
  fill: none;
}
</style></defs><rect width="960" height="500" class="background"/><g transform="translate(80,40)"><g transform="translate(420, 0)"><text style="text-anchor: middle; font-size: 28px;">Left associated binds (1 input per size)</text></g><g class="x axis" transform="translate(0,400)"><g class="tick" transform="translate(0,0)" style="opacity: 1;"><line y2="6" x2="0" class="axis-line"/><text dy=".71em" y="9" x="0" style="text-anchor: middle;">100,000</text></g><g class="tick" transform="translate(70,0)" style="opacity: 1;"><line y2="6" x2="0" class="axis-line"/><text dy=".71em" y="9" x="0" style="text-anchor: middle;">150,000</text></g><g class="tick" transform="translate(140,0)" style="opacity: 1;"><line y2="6" x2="0" class="axis-line"/><text dy=".71em" y="9" x="0" style="text-anchor: middle;">200,000</text></g><g class="tick" transform="translate(210,0)" style="opacity: 1;"><line y2="6" x2="0" class="axis-line"/><text dy=".71em" y="9" x="0" style="text-anchor: middle;">250,000</text></g><g class="tick" transform="translate(280,0)" style="opacity: 1;"><line y2="6" x2="0" class="axis-line"/><text dy=".71em" y="9" x="0" style="text-anchor: middle;">300,000</text></g><g class="tick" transform="translate(350,0)" style="opacity: 1;"><line y2="6" x2="0" class="axis-line"/><text dy=".71em" y="9" x="0" style="text-anchor: middle;">350,000</text></g><g class="tick" transform="translate(420,0)" style="opacity: 1;"><line y2="6" x2="0" class="axis-line"/><text dy=".71em" y="9" x="0" style="text-anchor: middle;">400,000</text></g><g class="tick" transform="translate(490.00000000000006,0)" style="opacity: 1;"><line y2="6" x2="0" class="axis-line"/><text dy=".71em" y="9" x="0" style="text-anchor: middle;">450,000</text></g><g class="tick" transform="translate(560,0)" style="opacity: 1;"><line y2="6" x2="0" class="axis-line"/><text dy=".71em" y="9" x="0" style="text-anchor: middle;">500,000</text></g><g class="tick" transform="translate(630,0)" style="opacity: 1;"><line y2="6" x2="0" class="axis-line"/><text dy=".71em" y="9" x="0" style="text-anchor: middle;">550,000</text></g><g class="tick" transform="translate(700,0)" style="opacity: 1;"><line y2="6" x2="0" class="axis-line"/><text dy=".71em" y="9" x="0" style="text-anchor: middle;">600,000</text></g><g class="tick" transform="translate(770,0)" style="opacity: 1;"><line y2="6" x2="0" class="axis-line"/><text dy=".71em" y="9" x="0" style="text-anchor: middle;">650,000</text></g><g class="tick" transform="translate(840,0)" style="opacity: 1;"><line y2="6" x2="0" class="axis-line"/><text dy=".71em" y="9" x="0" style="text-anchor: middle;">700,000</text></g><path class="axis-path" d="M0,6V0H840V6"/><text x="420" y="40" style="text-anchor: middle;">Number of binds</text></g><g class="y axis"><g class="tick" transform="translate(0,350.78530553688216)" style="opacity: 1;"><line x2="-6" y2="0" class="axis-line"/><text dy=".32em" x="-9" y="0" style="text-anchor: end;">1.00</text></g><g class="tick" transform="translate(0,300.03636983131383)" style="opacity: 1;"><line x2="-6" y2="0" class="axis-line"/><text dy=".32em" x="-9" y="0" style="text-anchor: end;">2.00</text></g><g class="tick" transform="translate(0,249.28743412574548)" style="opacity: 1;"><line x2="-6" y2="0" class="axis-line"/><text dy=".32em" x="-9" y="0" style="text-anchor: end;">3.00</text></g><g class="tick" transform="translate(0,198.53849842017718)" style="opacity: 1;"><line x2="-6" y2="0" class="axis-line"/><text dy=".32em" x="-9" y="0" style="text-anchor: end;">4.00</text></g><g class="tick" transform="translate(0,147.78956271460885)" style="opacity: 1;"><line x2="-6" y2="0" class="axis-line"/><text dy=".32em" x="-9" y="0" style="text-anchor: end;">5.00</text></g><g class="tick" transform="translate(0,97.04062700904058)" style="opacity: 1;"><line x2="-6" y2="0" class="axis-line"/><text dy=".32em" x="-9" y="0" style="text-anchor: end;">6.00</text></g><g class="tick" transform="translate(0,46.291691303472234)" style="opacity: 1;"><line x2="-6" y2="0" class="axis-line"/><text dy=".32em" x="-9" y="0" style="text-anchor: end;">7.00</text></g><path class="axis-path" d="M-6,0H0V400H-6"/><text transform="rotate(-90)" y="6" dy=".71em" style="text-anchor: end;">Mean running time (seconds)</text></g><g class="data-series-0"><circle cx="0" cy="366.2706654392765" r="3"/><circle cx="140" cy="331.575904066272" r="3"/><circle cx="280" cy="274.60475397757375" r="3"/><circle cx="420" cy="245.82206143235527" r="3"/><circle cx="560" cy="200.18329390817317" r="3"/><circle cx="700" cy="131.477659753051" r="3"/><circle cx="840" cy="0" r="3"/><path class="error-bar" x="0" y="366.2706654392765" d="M 0 366.2706654392765 V 361.2139534382742 h -3 h 6 h -3 V 371.3273774402789 h -3 h 6"/><path class="error-bar" x="140" y="331.575904066272" d="M 140 331.575904066272 V 328.0413804645242 h -3 h 6 h -3 V 335.11042766801984 h -3 h 6"/><path class="error-bar" x="280" y="274.60475397757375" d="M 280 274.60475397757375 V 268.3669019936125 h -3 h 6 h -3 V 280.84260596153507 h -3 h 6"/><path class="error-bar" x="420" y="245.82206143235527" d="M 420 245.82206143235527 V 235.14265719891014 h -3 h 6 h -3 V 256.5014656658004 h -3 h 6"/><path class="error-bar" x="560" y="200.18329390817317" d="M 560 200.18329390817317 V 185.9423746641264 h -3 h 6 h -3 V 214.42421315221995 h -3 h 6"/><path class="error-bar" x="700" y="131.477659753051" d="M 700 131.477659753051 V 110.93032739616469 h -3 h 6 h -3 V 152.0249921099373 h -3 h 6"/><path class="error-bar" x="840" y="0" d="M 840 0 V -36.4672641596929 h -3 h 6 h -3 V 36.46726415969286 h -3 h 6"/><path class="line" d="M0,366.2706654392765L140,331.575904066272L280,274.60475397757375L420,245.82206143235527L560,200.18329390817317L700,131.477659753051L840,0"/></g><g class="data-series-1"><circle cx="0" cy="389.97607206343497" r="3"/><circle cx="140" cy="377.45305108138365" r="3"/><circle cx="280" cy="365.62003214976335" r="3"/><circle cx="420" cy="355.97856056019117" r="3"/><circle cx="560" cy="345.3689804564945" r="3"/><circle cx="700" cy="331.74262355637114" r="3"/><circle cx="840" cy="315.2280772509089" r="3"/><path class="error-bar" x="0" y="389.97607206343497" d="M 0 389.97607206343497 V 388.9096382767027 h -3 h 6 h -3 V 391.0425058501673 h -3 h 6"/><path class="error-bar" x="140" y="377.45305108138365" d="M 140 377.45305108138365 V 375.4499592674245 h -3 h 6 h -3 V 379.4561428953428 h -3 h 6"/><path class="error-bar" x="280" y="365.62003214976335" d="M 280 365.62003214976335 V 362.6334657852209 h -3 h 6 h -3 V 368.60659851430586 h -3 h 6"/><path class="error-bar" x="420" y="355.97856056019117" d="M 420 355.97856056019117 V 354.85363362753344 h -3 h 6 h -3 V 357.1034874928489 h -3 h 6"/><path class="error-bar" x="560" y="345.3689804564945" d="M 560 345.3689804564945 V 343.486629646531 h -3 h 6 h -3 V 347.25133126645807 h -3 h 6"/><path class="error-bar" x="700" y="331.74262355637114" d="M 700 331.74262355637114 V 327.6490505313877 h -3 h 6 h -3 V 335.83619658135456 h -3 h 6"/><path class="error-bar" x="840" y="315.2280772509089" d="M 840 315.2280772509089 V 310.1685122517611 h -3 h 6 h -3 V 320.2876422500567 h -3 h 6"/><path class="line" d="M0,389.97607206343497L140,377.45305108138365L280,365.62003214976335L420,355.97856056019117L560,345.3689804564945L700,331.74262355637114L840,315.2280772509089"/></g><g class="data-series-2"><circle cx="0" cy="400" r="3"/><circle cx="140" cy="398.454042500868" r="3"/><circle cx="280" cy="396.805675675628" r="3"/><circle cx="420" cy="395.45490554113155" r="3"/><circle cx="560" cy="393.5214993784765" r="3"/><circle cx="700" cy="392.2872612220643" r="3"/><circle cx="840" cy="388.01675758435533" r="3"/><path class="error-bar" x="0" y="400" d="M 0 400 V 399.9499870176822 h -3 h 6 h -3 V 400.05001298231775 h -3 h 6"/><path class="error-bar" x="140" y="398.454042500868" d="M 140 398.454042500868 V 398.41579205567285 h -3 h 6 h -3 V 398.49229294606323 h -3 h 6"/><path class="error-bar" x="280" y="396.805675675628" d="M 280 396.805675675628 V 396.76630511510757 h -3 h 6 h -3 V 396.84504623614833 h -3 h 6"/><path class="error-bar" x="420" y="395.45490554113155" d="M 420 395.45490554113155 V 395.41002885622106 h -3 h 6 h -3 V 395.4997822260421 h -3 h 6"/><path class="error-bar" x="560" y="393.5214993784765" d="M 560 393.5214993784765 V 393.47709473245254 h -3 h 6 h -3 V 393.56590402450047 h -3 h 6"/><path class="error-bar" x="700" y="392.2872612220643" d="M 700 392.2872612220643 V 392.2431073171913 h -3 h 6 h -3 V 392.33141512693726 h -3 h 6"/><path class="error-bar" x="840" y="388.01675758435533" d="M 840 388.01675758435533 V 387.89433079022064 h -3 h 6 h -3 V 388.1391843784901 h -3 h 6"/><path class="line" d="M0,400L140,398.454042500868L280,396.805675675628L420,395.45490554113155L560,393.5214993784765L700,392.2872612220643L840,388.01675758435533"/></g><g class="legend" transform="translate(50, 50)"><rect x="0" y="0" width="15" height="15" class="data-series-0"/><rect x="0" y="20" width="15" height="15" class="data-series-1"/><rect x="0" y="40" width="15" height="15" class="data-series-2"/><text x="24" y="13">Original FreeT</text><text x="24" y="33">Rec CPS FreeT</text><text x="24" y="53">Data CPS FreeT</text></g></g></svg>