<svg xmlns="http://www.w3.org/2000/svg" width="960" height="500"><defs><style type="text/css">
.background {
  fill: white;
}

text {
  font-size: 14px;
  font-family: sans-serif;
}

.axis-path,
.axis-line {
  fill: none;
  stroke: #000;
  stroke-width: 1px;
  shape-rendering: crispEdges;
}

.line {
  fill: none;
  stroke-width: 1.5px;
}

.data-series-0 {
  stroke: steelblue;
  fill: steelblue;
}

.data-series-1 {
  stroke: crimson;
  fill: crimson;
}

.data-series-2 {
  stroke: mediumseagreen;
  fill: mediumseagreen;
}

.data-series-3 {
  stroke: mediumslateblue;
  fill: mediumslateblue;
}

.data-series-4 {
  stroke: goldenrod;
  fill: goldenrod;
}

.error-bar {
  fill: none;
}
</style></defs><rect width="960" height="500" class="background"/><g transform="translate(80,40)"><g transform="translate(420, 0)"><text style="text-anchor: middle; font-size: 28px;">Left associated binds (1 input per size)</text></g><g class="x axis" transform="translate(0,400)"><g class="tick" transform="translate(0,0)" style="opacity: 1;"><line y2="6" x2="0" class="axis-line"/><text dy=".71em" y="9" x="0" style="text-anchor: middle;">100,000</text></g><g class="tick" transform="translate(70,0)" style="opacity: 1;"><line y2="6" x2="0" class="axis-line"/><text dy=".71em" y="9" x="0" style="text-anchor: middle;">150,000</text></g><g class="tick" transform="translate(140,0)" style="opacity: 1;"><line y2="6" x2="0" class="axis-line"/><text dy=".71em" y="9" x="0" style="text-anchor: middle;">200,000</text></g><g class="tick" transform="translate(210,0)" style="opacity: 1;"><line y2="6" x2="0" class="axis-line"/><text dy=".71em" y="9" x="0" style="text-anchor: middle;">250,000</text></g><g class="tick" transform="translate(280,0)" style="opacity: 1;"><line y2="6" x2="0" class="axis-line"/><text dy=".71em" y="9" x="0" style="text-anchor: middle;">300,000</text></g><g class="tick" transform="translate(350,0)" style="opacity: 1;"><line y2="6" x2="0" class="axis-line"/><text dy=".71em" y="9" x="0" style="text-anchor: middle;">350,000</text></g><g class="tick" transform="translate(420,0)" style="opacity: 1;"><line y2="6" x2="0" class="axis-line"/><text dy=".71em" y="9" x="0" style="text-anchor: middle;">400,000</text></g><g class="tick" transform="translate(490.00000000000006,0)" style="opacity: 1;"><line y2="6" x2="0" class="axis-line"/><text dy=".71em" y="9" x="0" style="text-anchor: middle;">450,000</text></g><g class="tick" transform="translate(560,0)" style="opacity: 1;"><line y2="6" x2="0" class="axis-line"/><text dy=".71em" y="9" x="0" style="text-anchor: middle;">500,000</text></g><g class="tick" transform="translate(630,0)" style="opacity: 1;"><line y2="6" x2="0" class="axis-line"/><text dy=".71em" y="9" x="0" style="text-anchor: middle;">550,000</text></g><g class="tick" transform="translate(700,0)" style="opacity: 1;"><line y2="6" x2="0" class="axis-line"/><text dy=".71em" y="9" x="0" style="text-anchor: middle;">600,000</text></g><g class="tick" transform="translate(770,0)" style="opacity: 1;"><line y2="6" x2="0" class="axis-line"/><text dy=".71em" y="9" x="0" style="text-anchor: middle;">650,000</text></g><g class="tick" transform="translate(840,0)" style="opacity: 1;"><line y2="6" x2="0" class="axis-line"/><text dy=".71em" y="9" x="0" style="text-anchor: middle;">700,000</text></g><path class="axis-path" d="M0,6V0H840V6"/><text x="420" y="40" style="text-anchor: middle;">Number of binds</text></g><g class="y axis"><g class="tick" transform="translate(0,386.95462322978995)" style="opacity: 1;"><line x2="-6" y2="0" class="axis-line"/><text dy=".32em" x="-9" y="0" style="text-anchor: end;">1.00</text></g><g class="tick" transform="translate(0,344.87849558704886)" style="opacity: 1;"><line x2="-6" y2="0" class="axis-line"/><text dy=".32em" x="-9" y="0" style="text-anchor: end;">2.00</text></g><g class="tick" transform="translate(0,302.80236794430783)" style="opacity: 1;"><line x2="-6" y2="0" class="axis-line"/><text dy=".32em" x="-9" y="0" style="text-anchor: end;">3.00</text></g><g class="tick" transform="translate(0,260.72624030156675)" style="opacity: 1;"><line x2="-6" y2="0" class="axis-line"/><text dy=".32em" x="-9" y="0" style="text-anchor: end;">4.00</text></g><g class="tick" transform="translate(0,218.6501126588257)" style="opacity: 1;"><line x2="-6" y2="0" class="axis-line"/><text dy=".32em" x="-9" y="0" style="text-anchor: end;">5.00</text></g><g class="tick" transform="translate(0,176.57398501608466)" style="opacity: 1;"><line x2="-6" y2="0" class="axis-line"/><text dy=".32em" x="-9" y="0" style="text-anchor: end;">6.00</text></g><g class="tick" transform="translate(0,134.4978573733436)" style="opacity: 1;"><line x2="-6" y2="0" class="axis-line"/><text dy=".32em" x="-9" y="0" style="text-anchor: end;">7.00</text></g><g class="tick" transform="translate(0,92.42172973060252)" style="opacity: 1;"><line x2="-6" y2="0" class="axis-line"/><text dy=".32em" x="-9" y="0" style="text-anchor: end;">8.00</text></g><g class="tick" transform="translate(0,50.34560208786147)" style="opacity: 1;"><line x2="-6" y2="0" class="axis-line"/><text dy=".32em" x="-9" y="0" style="text-anchor: end;">9.00</text></g><g class="tick" transform="translate(0,8.269474445120428)" style="opacity: 1;"><line x2="-6" y2="0" class="axis-line"/><text dy=".32em" x="-9" y="0" style="text-anchor: end;">10.00</text></g><path class="axis-path" d="M-6,0H0V400H-6"/><text transform="rotate(-90)" y="6" dy=".71em" style="text-anchor: end;">Mean running time (seconds)</text></g><g class="data-series-0"><circle cx="0" cy="388.22482633328417" r="3"/><circle cx="140" cy="344.4231631545999" r="3"/><circle cx="280" cy="299.3162997082303" r="3"/><circle cx="420" cy="274.3548095047127" r="3"/><circle cx="560" cy="195.05766845842803" r="3"/><circle cx="700" cy="85.27764620067595" r="3"/><circle cx="840" cy="0" r="3"/><path class="error-bar" x="0" y="388.22482633328417" d="M 0 388.22482633328417 V 381.3333804333163 h -3 h 6 h -3 V 395.1162722332521 h -3 h 6"/><path class="error-bar" x="140" y="344.4231631545999" d="M 140 344.4231631545999 V 324.8416744791899 h -3 h 6 h -3 V 364.0046518300099 h -3 h 6"/><path class="error-bar" x="280" y="299.3162997082303" d="M 280 299.3162997082303 V 288.9199587439945 h -3 h 6 h -3 V 309.7126406724661 h -3 h 6"/><path class="error-bar" x="420" y="274.3548095047127" d="M 420 274.3548095047127 V 263.86711840652583 h -3 h 6 h -3 V 284.8425006028996 h -3 h 6"/><path class="error-bar" x="560" y="195.05766845842803" d="M 560 195.05766845842803 V 169.34063676220066 h -3 h 6 h -3 V 220.7747001546554 h -3 h 6"/><path class="error-bar" x="700" y="85.27764620067595" d="M 700 85.27764620067595 V 42.12614684469269 h -3 h 6 h -3 V 128.4291455566592 h -3 h 6"/><path class="error-bar" x="840" y="0" d="M 840 0 V -22.64447358186521 h -3 h 6 h -3 V 22.64447358186521 h -3 h 6"/><path class="line" d="M0,388.22482633328417L140,344.4231631545999L280,299.3162997082303L420,274.3548095047127L560,195.05766845842803L700,85.27764620067595L840,0"/></g><g class="data-series-1"><circle cx="0" cy="400" r="3"/><circle cx="140" cy="370.7172172884257" r="3"/><circle cx="280" cy="337.6265688718285" r="3"/><circle cx="420" cy="301.8238493740215" r="3"/><circle cx="560" cy="283.74495605255765" r="3"/><circle cx="700" cy="249.38828248576817" r="3"/><circle cx="840" cy="191.70993081039853" r="3"/><path class="error-bar" x="0" y="400" d="M 0 400 V 395.07291354518543 h -3 h 6 h -3 V 404.92708645481457 h -3 h 6"/><path class="error-bar" x="140" y="370.7172172884257" d="M 140 370.7172172884257 V 363.1569920656512 h -3 h 6 h -3 V 378.27744251120004 h -3 h 6"/><path class="error-bar" x="280" y="337.6265688718285" d="M 280 337.6265688718285 V 318.1590524532789 h -3 h 6 h -3 V 357.0940852903782 h -3 h 6"/><path class="error-bar" x="420" y="301.8238493740215" d="M 420 301.8238493740215 V 298.37415743802404 h -3 h 6 h -3 V 305.27354131001897 h -3 h 6"/><path class="error-bar" x="560" y="283.74495605255765" d="M 560 283.74495605255765 V 277.3429954183979 h -3 h 6 h -3 V 290.1469166867174 h -3 h 6"/><path class="error-bar" x="700" y="249.38828248576817" d="M 700 249.38828248576817 V 236.62408146249825 h -3 h 6 h -3 V 262.1524835090382 h -3 h 6"/><path class="error-bar" x="840" y="191.70993081039853" d="M 840 191.70993081039853 V 183.2985721176359 h -3 h 6 h -3 V 200.12128950316122 h -3 h 6"/><path class="line" d="M0,400L140,370.7172172884257L280,337.6265688718285L420,301.8238493740215L560,283.74495605255765L700,249.38828248576817L840,191.70993081039853"/></g><g class="legend" transform="translate(50, 50)"><rect x="0" y="0" width="15" height="15" class="data-series-0"/><rect x="0" y="20" width="15" height="15" class="data-series-1"/><text x="24" y="13">Original FreeT</text><text x="24" y="33">FreeT2</text></g></g></svg>