<svg xmlns="http://www.w3.org/2000/svg" width="960" height="500"><defs><style type="text/css">
.background {
  fill: white;
}

text {
  font-size: 14px;
  font-family: sans-serif;
}

.axis-path,
.axis-line {
  fill: none;
  stroke: #000;
  stroke-width: 1px;
  shape-rendering: crispEdges;
}

.line {
  fill: none;
  stroke-width: 1.5px;
}

.data-series-0 {
  stroke: steelblue;
  fill: steelblue;
}

.data-series-1 {
  stroke: crimson;
  fill: crimson;
}

.data-series-2 {
  stroke: mediumseagreen;
  fill: mediumseagreen;
}

.data-series-3 {
  stroke: mediumslateblue;
  fill: mediumslateblue;
}

.data-series-4 {
  stroke: goldenrod;
  fill: goldenrod;
}

.error-bar {
  fill: none;
}
</style></defs><rect width="960" height="500" class="background"/><g transform="translate(80,40)"><g transform="translate(420, 0)"><text style="text-anchor: middle; font-size: 28px;">Left associated binds (1 input per size)</text></g><g class="x axis" transform="translate(0,400)"><g class="tick" transform="translate(0,0)" style="opacity: 1;"><line y2="6" x2="0" class="axis-line"/><text dy=".71em" y="9" x="0" style="text-anchor: middle;">100,000</text></g><g class="tick" transform="translate(70,0)" style="opacity: 1;"><line y2="6" x2="0" class="axis-line"/><text dy=".71em" y="9" x="0" style="text-anchor: middle;">150,000</text></g><g class="tick" transform="translate(140,0)" style="opacity: 1;"><line y2="6" x2="0" class="axis-line"/><text dy=".71em" y="9" x="0" style="text-anchor: middle;">200,000</text></g><g class="tick" transform="translate(210,0)" style="opacity: 1;"><line y2="6" x2="0" class="axis-line"/><text dy=".71em" y="9" x="0" style="text-anchor: middle;">250,000</text></g><g class="tick" transform="translate(280,0)" style="opacity: 1;"><line y2="6" x2="0" class="axis-line"/><text dy=".71em" y="9" x="0" style="text-anchor: middle;">300,000</text></g><g class="tick" transform="translate(350,0)" style="opacity: 1;"><line y2="6" x2="0" class="axis-line"/><text dy=".71em" y="9" x="0" style="text-anchor: middle;">350,000</text></g><g class="tick" transform="translate(420,0)" style="opacity: 1;"><line y2="6" x2="0" class="axis-line"/><text dy=".71em" y="9" x="0" style="text-anchor: middle;">400,000</text></g><g class="tick" transform="translate(490.00000000000006,0)" style="opacity: 1;"><line y2="6" x2="0" class="axis-line"/><text dy=".71em" y="9" x="0" style="text-anchor: middle;">450,000</text></g><g class="tick" transform="translate(560,0)" style="opacity: 1;"><line y2="6" x2="0" class="axis-line"/><text dy=".71em" y="9" x="0" style="text-anchor: middle;">500,000</text></g><g class="tick" transform="translate(630,0)" style="opacity: 1;"><line y2="6" x2="0" class="axis-line"/><text dy=".71em" y="9" x="0" style="text-anchor: middle;">550,000</text></g><g class="tick" transform="translate(700,0)" style="opacity: 1;"><line y2="6" x2="0" class="axis-line"/><text dy=".71em" y="9" x="0" style="text-anchor: middle;">600,000</text></g><g class="tick" transform="translate(770,0)" style="opacity: 1;"><line y2="6" x2="0" class="axis-line"/><text dy=".71em" y="9" x="0" style="text-anchor: middle;">650,000</text></g><g class="tick" transform="translate(840,0)" style="opacity: 1;"><line y2="6" x2="0" class="axis-line"/><text dy=".71em" y="9" x="0" style="text-anchor: middle;">700,000</text></g><path class="axis-path" d="M0,6V0H840V6"/><text x="420" y="40" style="text-anchor: middle;">Number of binds</text></g><g class="y axis"><g class="tick" transform="translate(0,397.2920422935438)" style="opacity: 1;"><line x2="-6" y2="0" class="axis-line"/><text dy=".32em" x="-9" y="0" style="text-anchor: end;">1.00</text></g><g class="tick" transform="translate(0,363.22301720678524)" style="opacity: 1;"><line x2="-6" y2="0" class="axis-line"/><text dy=".32em" x="-9" y="0" style="text-anchor: end;">2.00</text></g><g class="tick" transform="translate(0,329.1539921200267)" style="opacity: 1;"><line x2="-6" y2="0" class="axis-line"/><text dy=".32em" x="-9" y="0" style="text-anchor: end;">3.00</text></g><g class="tick" transform="translate(0,295.0849670332682)" style="opacity: 1;"><line x2="-6" y2="0" class="axis-line"/><text dy=".32em" x="-9" y="0" style="text-anchor: end;">4.00</text></g><g class="tick" transform="translate(0,261.0159419465096)" style="opacity: 1;"><line x2="-6" y2="0" class="axis-line"/><text dy=".32em" x="-9" y="0" style="text-anchor: end;">5.00</text></g><g class="tick" transform="translate(0,226.94691685975107)" style="opacity: 1;"><line x2="-6" y2="0" class="axis-line"/><text dy=".32em" x="-9" y="0" style="text-anchor: end;">6.00</text></g><g class="tick" transform="translate(0,192.87789177299248)" style="opacity: 1;"><line x2="-6" y2="0" class="axis-line"/><text dy=".32em" x="-9" y="0" style="text-anchor: end;">7.00</text></g><g class="tick" transform="translate(0,158.80886668623396)" style="opacity: 1;"><line x2="-6" y2="0" class="axis-line"/><text dy=".32em" x="-9" y="0" style="text-anchor: end;">8.00</text></g><g class="tick" transform="translate(0,124.73984159947543)" style="opacity: 1;"><line x2="-6" y2="0" class="axis-line"/><text dy=".32em" x="-9" y="0" style="text-anchor: end;">9.00</text></g><g class="tick" transform="translate(0,90.6708165127169)" style="opacity: 1;"><line x2="-6" y2="0" class="axis-line"/><text dy=".32em" x="-9" y="0" style="text-anchor: end;">10.00</text></g><g class="tick" transform="translate(0,56.60179142595831)" style="opacity: 1;"><line x2="-6" y2="0" class="axis-line"/><text dy=".32em" x="-9" y="0" style="text-anchor: end;">11.00</text></g><g class="tick" transform="translate(0,22.53276633919978)" style="opacity: 1;"><line x2="-6" y2="0" class="axis-line"/><text dy=".32em" x="-9" y="0" style="text-anchor: end;">12.00</text></g><path class="axis-path" d="M-6,0H0V400H-6"/><text transform="rotate(-90)" y="6" dy=".71em" style="text-anchor: end;">Mean running time (seconds)</text></g><g class="data-series-0"><circle cx="0" cy="400" r="3"/><circle cx="140" cy="366.2122330477128" r="3"/><circle cx="280" cy="331.2087418611048" r="3"/><circle cx="420" cy="296.8561350947258" r="3"/><circle cx="560" cy="234.42289347209265" r="3"/><circle cx="700" cy="176.56646545787063" r="3"/><circle cx="840" cy="66.45548864853237" r="3"/><path class="error-bar" x="0" y="400" d="M 0 400 V 395.5327548475878 h -3 h 6 h -3 V 404.46724515241226 h -3 h 6"/><path class="error-bar" x="140" y="366.2122330477128" d="M 140 366.2122330477128 V 357.079160967714 h -3 h 6 h -3 V 375.3453051277116 h -3 h 6"/><path class="error-bar" x="280" y="331.2087418611048" d="M 280 331.2087418611048 V 329.2950925053283 h -3 h 6 h -3 V 333.1223912168814 h -3 h 6"/><path class="error-bar" x="420" y="296.8561350947258" d="M 420 296.8561350947258 V 288.77059803449123 h -3 h 6 h -3 V 304.9416721549604 h -3 h 6"/><path class="error-bar" x="560" y="234.42289347209265" d="M 560 234.42289347209265 V 221.3638416166299 h -3 h 6 h -3 V 247.48194532755537 h -3 h 6"/><path class="error-bar" x="700" y="176.56646545787063" d="M 700 176.56646545787063 V 155.65276857247866 h -3 h 6 h -3 V 197.48016234326266 h -3 h 6"/><path class="error-bar" x="840" y="66.45548864853237" d="M 840 66.45548864853237 V 30.477864022100043 h -3 h 6 h -3 V 102.43311327496474 h -3 h 6"/><path class="line" d="M0,400L140,366.2122330477128L280,331.2087418611048L420,296.8561350947258L560,234.42289347209265L700,176.56646545787063L840,66.45548864853237"/></g><g class="data-series-1"><circle cx="0" cy="343.44935220507386" r="3"/><circle cx="140" cy="245.23362482309795" r="3"/><circle cx="280" cy="221.42045937583026" r="3"/><circle cx="420" cy="156.56056264388573" r="3"/><circle cx="560" cy="103.53344641578755" r="3"/><circle cx="700" cy="58.00987158488975" r="3"/><circle cx="840" cy="0" r="3"/><path class="error-bar" x="0" y="343.44935220507386" d="M 0 343.44935220507386 V 331.0549426589813 h -3 h 6 h -3 V 355.8437617511665 h -3 h 6"/><path class="error-bar" x="140" y="245.23362482309795" d="M 140 245.23362482309795 V 220.6334498533004 h -3 h 6 h -3 V 269.8337997928956 h -3 h 6"/><path class="error-bar" x="280" y="221.42045937583026" d="M 280 221.42045937583026 V 162.81316405422365 h -3 h 6 h -3 V 280.027754697437 h -3 h 6"/><path class="error-bar" x="420" y="156.56056264388573" d="M 420 156.56056264388573 V 135.39421127625855 h -3 h 6 h -3 V 177.72691401151292 h -3 h 6"/><path class="error-bar" x="560" y="103.53344641578755" d="M 560 103.53344641578755 V 68.23657989384864 h -3 h 6 h -3 V 138.8303129377264 h -3 h 6"/><path class="error-bar" x="700" y="58.00987158488975" d="M 700 58.00987158488975 V 46.864679095182815 h -3 h 6 h -3 V 69.15506407459668 h -3 h 6"/><path class="error-bar" x="840" y="0" d="M 840 0 V -13.99281449202494 h -3 h 6 h -3 V 13.99281449202494 h -3 h 6"/><path class="line" d="M0,343.44935220507386L140,245.23362482309795L280,221.42045937583026L420,156.56056264388573L560,103.53344641578755L700,58.00987158488975L840,0"/></g><g class="data-series-2"><circle cx="0" cy="381.36967038563336" r="3"/><circle cx="140" cy="316.51948374148066" r="3"/><circle cx="280" cy="228.6122599198984" r="3"/><circle cx="420" cy="285.68271318141996" r="3"/><circle cx="560" cy="303.6119688790462" r="3"/><circle cx="700" cy="307.020562410596" r="3"/><circle cx="840" cy="171.52493150029144" r="3"/><path class="error-bar" x="0" y="381.36967038563336" d="M 0 381.36967038563336 V 359.11283434627046 h -3 h 6 h -3 V 403.6265064249962 h -3 h 6"/><path class="error-bar" x="140" y="316.51948374148066" d="M 140 316.51948374148066 V 289.7045644949374 h -3 h 6 h -3 V 343.3344029880238 h -3 h 6"/><path class="error-bar" x="280" y="228.6122599198984" d="M 280 228.6122599198984 V 170.19460440255267 h -3 h 6 h -3 V 287.02991543724414 h -3 h 6"/><path class="error-bar" x="420" y="285.68271318141996" d="M 420 285.68271318141996 V 270.2665290146108 h -3 h 6 h -3 V 301.0988973482291 h -3 h 6"/><path class="error-bar" x="560" y="303.6119688790462" d="M 560 303.6119688790462 V 254.8297952875913 h -3 h 6 h -3 V 352.394142470501 h -3 h 6"/><path class="error-bar" x="700" y="307.020562410596" d="M 700 307.020562410596 V 260.1364855090283 h -3 h 6 h -3 V 353.9046393121637 h -3 h 6"/><path class="error-bar" x="840" y="171.52493150029144" d="M 840 171.52493150029144 V -64.52700575973074 h -3 h 6 h -3 V 407.57686876031363 h -3 h 6"/><path class="line" d="M0,381.36967038563336L140,316.51948374148066L280,228.6122599198984L420,285.68271318141996L560,303.6119688790462L700,307.020562410596L840,171.52493150029144"/></g><g class="legend" transform="translate(50, 50)"><rect x="0" y="0" width="15" height="15" class="data-series-0"/><rect x="0" y="20" width="15" height="15" class="data-series-1"/><rect x="0" y="40" width="15" height="15" class="data-series-2"/><text x="24" y="13">Original FreeT</text><text x="24" y="33">Rec CPS FreeT</text><text x="24" y="53">Data CPS FreeT</text></g></g></svg>