<svg xmlns="http://www.w3.org/2000/svg" width="960" height="500"><defs><style type="text/css">
.background {
  fill: white;
}

text {
  font-size: 14px;
  font-family: sans-serif;
}

.axis-path,
.axis-line {
  fill: none;
  stroke: #000;
  stroke-width: 1px;
  shape-rendering: crispEdges;
}

.line {
  fill: none;
  stroke-width: 1.5px;
}

.data-series-0 {
  stroke: steelblue;
  fill: steelblue;
}

.data-series-1 {
  stroke: crimson;
  fill: crimson;
}

.data-series-2 {
  stroke: mediumseagreen;
  fill: mediumseagreen;
}

.data-series-3 {
  stroke: mediumslateblue;
  fill: mediumslateblue;
}

.data-series-4 {
  stroke: goldenrod;
  fill: goldenrod;
}

.error-bar {
  fill: none;
}
</style></defs><rect width="960" height="500" class="background"/><g transform="translate(80,40)"><g transform="translate(420, 0)"><text style="text-anchor: middle; font-size: 28px;">Left associated binds (1 input per size)</text></g><g class="x axis" transform="translate(0,400)"><g class="tick" transform="translate(0,0)" style="opacity: 1;"><line y2="6" x2="0" class="axis-line"/><text dy=".71em" y="9" x="0" style="text-anchor: middle;">100,000</text></g><g class="tick" transform="translate(70,0)" style="opacity: 1;"><line y2="6" x2="0" class="axis-line"/><text dy=".71em" y="9" x="0" style="text-anchor: middle;">150,000</text></g><g class="tick" transform="translate(140,0)" style="opacity: 1;"><line y2="6" x2="0" class="axis-line"/><text dy=".71em" y="9" x="0" style="text-anchor: middle;">200,000</text></g><g class="tick" transform="translate(210,0)" style="opacity: 1;"><line y2="6" x2="0" class="axis-line"/><text dy=".71em" y="9" x="0" style="text-anchor: middle;">250,000</text></g><g class="tick" transform="translate(280,0)" style="opacity: 1;"><line y2="6" x2="0" class="axis-line"/><text dy=".71em" y="9" x="0" style="text-anchor: middle;">300,000</text></g><g class="tick" transform="translate(350,0)" style="opacity: 1;"><line y2="6" x2="0" class="axis-line"/><text dy=".71em" y="9" x="0" style="text-anchor: middle;">350,000</text></g><g class="tick" transform="translate(420,0)" style="opacity: 1;"><line y2="6" x2="0" class="axis-line"/><text dy=".71em" y="9" x="0" style="text-anchor: middle;">400,000</text></g><g class="tick" transform="translate(490.00000000000006,0)" style="opacity: 1;"><line y2="6" x2="0" class="axis-line"/><text dy=".71em" y="9" x="0" style="text-anchor: middle;">450,000</text></g><g class="tick" transform="translate(560,0)" style="opacity: 1;"><line y2="6" x2="0" class="axis-line"/><text dy=".71em" y="9" x="0" style="text-anchor: middle;">500,000</text></g><g class="tick" transform="translate(630,0)" style="opacity: 1;"><line y2="6" x2="0" class="axis-line"/><text dy=".71em" y="9" x="0" style="text-anchor: middle;">550,000</text></g><g class="tick" transform="translate(700,0)" style="opacity: 1;"><line y2="6" x2="0" class="axis-line"/><text dy=".71em" y="9" x="0" style="text-anchor: middle;">600,000</text></g><g class="tick" transform="translate(770,0)" style="opacity: 1;"><line y2="6" x2="0" class="axis-line"/><text dy=".71em" y="9" x="0" style="text-anchor: middle;">650,000</text></g><g class="tick" transform="translate(840,0)" style="opacity: 1;"><line y2="6" x2="0" class="axis-line"/><text dy=".71em" y="9" x="0" style="text-anchor: middle;">700,000</text></g><path class="axis-path" d="M0,6V0H840V6"/><text x="420" y="40" style="text-anchor: middle;">Number of binds</text></g><g class="y axis"><g class="tick" transform="translate(0,359.99801067165384)" style="opacity: 1;"><line x2="-6" y2="0" class="axis-line"/><text dy=".32em" x="-9" y="0" style="text-anchor: end;">1.00</text></g><g class="tick" transform="translate(0,305.3825204939854)" style="opacity: 1;"><line x2="-6" y2="0" class="axis-line"/><text dy=".32em" x="-9" y="0" style="text-anchor: end;">2.00</text></g><g class="tick" transform="translate(0,250.767030316317)" style="opacity: 1;"><line x2="-6" y2="0" class="axis-line"/><text dy=".32em" x="-9" y="0" style="text-anchor: end;">3.00</text></g><g class="tick" transform="translate(0,196.15154013864858)" style="opacity: 1;"><line x2="-6" y2="0" class="axis-line"/><text dy=".32em" x="-9" y="0" style="text-anchor: end;">4.00</text></g><g class="tick" transform="translate(0,141.53604996098008)" style="opacity: 1;"><line x2="-6" y2="0" class="axis-line"/><text dy=".32em" x="-9" y="0" style="text-anchor: end;">5.00</text></g><g class="tick" transform="translate(0,86.92055978331163)" style="opacity: 1;"><line x2="-6" y2="0" class="axis-line"/><text dy=".32em" x="-9" y="0" style="text-anchor: end;">6.00</text></g><g class="tick" transform="translate(0,32.30506960564319)" style="opacity: 1;"><line x2="-6" y2="0" class="axis-line"/><text dy=".32em" x="-9" y="0" style="text-anchor: end;">7.00</text></g><path class="axis-path" d="M-6,0H0V400H-6"/><text transform="rotate(-90)" y="6" dy=".71em" style="text-anchor: end;">Mean running time (seconds)</text></g><g class="data-series-0"><circle cx="0" cy="379.53979746542797" r="3"/><circle cx="140" cy="330.8641534496714" r="3"/><circle cx="280" cy="278.95190522933746" r="3"/><circle cx="420" cy="248.0667013544334" r="3"/><circle cx="560" cy="190.18724535346894" r="3"/><circle cx="700" cy="138.6088490175153" r="3"/><circle cx="840" cy="0" r="3"/><path class="error-bar" x="0" y="379.53979746542797" d="M 0 379.53979746542797 V 374.5057450241392 h -3 h 6 h -3 V 384.5738499067168 h -3 h 6"/><path class="error-bar" x="140" y="330.8641534496714" d="M 140 330.8641534496714 V 325.754912835012 h -3 h 6 h -3 V 335.9733940643308 h -3 h 6"/><path class="error-bar" x="280" y="278.95190522933746" d="M 280 278.95190522933746 V 271.2823417263176 h -3 h 6 h -3 V 286.6214687323572 h -3 h 6"/><path class="error-bar" x="420" y="248.0667013544334" d="M 420 248.0667013544334 V 228.42952842728525 h -3 h 6 h -3 V 267.70387428158153 h -3 h 6"/><path class="error-bar" x="560" y="190.18724535346894" d="M 560 190.18724535346894 V 170.8999984269165 h -3 h 6 h -3 V 209.4744922800213 h -3 h 6"/><path class="error-bar" x="700" y="138.6088490175153" d="M 700 138.6088490175153 V 118.8337041512796 h -3 h 6 h -3 V 158.38399388375092 h -3 h 6"/><path class="error-bar" x="840" y="0" d="M 840 0 V -5.395137184686671 h -3 h 6 h -3 V 5.395137184686627 h -3 h 6"/><path class="line" d="M0,379.53979746542797L140,330.8641534496714L280,278.95190522933746L420,248.0667013544334L560,190.18724535346894L700,138.6088490175153L840,0"/></g><g class="data-series-1"><circle cx="0" cy="400" r="3"/><circle cx="140" cy="386.38655431041207" r="3"/><circle cx="280" cy="372.2314971409305" r="3"/><circle cx="420" cy="360.67939347249495" r="3"/><circle cx="560" cy="346.67338222104445" r="3"/><circle cx="700" cy="308.5006841129069" r="3"/><circle cx="840" cy="299.21245656460246" r="3"/><path class="error-bar" x="0" y="400" d="M 0 400 V 396.9706494194076 h -3 h 6 h -3 V 403.02935058059245 h -3 h 6"/><path class="error-bar" x="140" y="386.38655431041207" d="M 140 386.38655431041207 V 379.9412125074067 h -3 h 6 h -3 V 392.8318961134175 h -3 h 6"/><path class="error-bar" x="280" y="372.2314971409305" d="M 280 372.2314971409305 V 366.4555506876285 h -3 h 6 h -3 V 378.0074435942324 h -3 h 6"/><path class="error-bar" x="420" y="360.67939347249495" d="M 420 360.67939347249495 V 354.2733151770684 h -3 h 6 h -3 V 367.08547176792155 h -3 h 6"/><path class="error-bar" x="560" y="346.67338222104445" d="M 560 346.67338222104445 V 339.5840779533832 h -3 h 6 h -3 V 353.7626864887057 h -3 h 6"/><path class="error-bar" x="700" y="308.5006841129069" d="M 700 308.5006841129069 V 298.5709131186714 h -3 h 6 h -3 V 318.4304551071425 h -3 h 6"/><path class="error-bar" x="840" y="299.21245656460246" d="M 840 299.21245656460246 V 291.4310551803221 h -3 h 6 h -3 V 306.9938579488828 h -3 h 6"/><path class="line" d="M0,400L140,386.38655431041207L280,372.2314971409305L420,360.67939347249495L560,346.67338222104445L700,308.5006841129069L840,299.21245656460246"/></g><g class="legend" transform="translate(50, 50)"><rect x="0" y="0" width="15" height="15" class="data-series-0"/><rect x="0" y="20" width="15" height="15" class="data-series-1"/><text x="24" y="13">Original FreeT</text><text x="24" y="33">Codensity FreeT</text></g></g></svg>