<svg xmlns="http://www.w3.org/2000/svg" width="960" height="500"><defs><style type="text/css">
.background {
  fill: white;
}

text {
  font-size: 14px;
  font-family: sans-serif;
}

.axis-path,
.axis-line {
  fill: none;
  stroke: #000;
  stroke-width: 1px;
  shape-rendering: crispEdges;
}

.line {
  fill: none;
  stroke-width: 1.5px;
}

.data-series-0 {
  stroke: steelblue;
  fill: steelblue;
}

.data-series-1 {
  stroke: crimson;
  fill: crimson;
}

.data-series-2 {
  stroke: mediumseagreen;
  fill: mediumseagreen;
}

.data-series-3 {
  stroke: mediumslateblue;
  fill: mediumslateblue;
}

.data-series-4 {
  stroke: goldenrod;
  fill: goldenrod;
}

.error-bar {
  fill: none;
}
</style></defs><rect width="960" height="500" class="background"/><g transform="translate(80,40)"><g transform="translate(420, 0)"><text style="text-anchor: middle; font-size: 28px;">Right associated binds (1 input per size)</text></g><g class="x axis" transform="translate(0,400)"><g class="tick" transform="translate(0,0)" style="opacity: 1;"><line y2="6" x2="0" class="axis-line"/><text dy=".71em" y="9" x="0" style="text-anchor: middle;">100,000</text></g><g class="tick" transform="translate(70,0)" style="opacity: 1;"><line y2="6" x2="0" class="axis-line"/><text dy=".71em" y="9" x="0" style="text-anchor: middle;">150,000</text></g><g class="tick" transform="translate(140,0)" style="opacity: 1;"><line y2="6" x2="0" class="axis-line"/><text dy=".71em" y="9" x="0" style="text-anchor: middle;">200,000</text></g><g class="tick" transform="translate(210,0)" style="opacity: 1;"><line y2="6" x2="0" class="axis-line"/><text dy=".71em" y="9" x="0" style="text-anchor: middle;">250,000</text></g><g class="tick" transform="translate(280,0)" style="opacity: 1;"><line y2="6" x2="0" class="axis-line"/><text dy=".71em" y="9" x="0" style="text-anchor: middle;">300,000</text></g><g class="tick" transform="translate(350,0)" style="opacity: 1;"><line y2="6" x2="0" class="axis-line"/><text dy=".71em" y="9" x="0" style="text-anchor: middle;">350,000</text></g><g class="tick" transform="translate(420,0)" style="opacity: 1;"><line y2="6" x2="0" class="axis-line"/><text dy=".71em" y="9" x="0" style="text-anchor: middle;">400,000</text></g><g class="tick" transform="translate(490.00000000000006,0)" style="opacity: 1;"><line y2="6" x2="0" class="axis-line"/><text dy=".71em" y="9" x="0" style="text-anchor: middle;">450,000</text></g><g class="tick" transform="translate(560,0)" style="opacity: 1;"><line y2="6" x2="0" class="axis-line"/><text dy=".71em" y="9" x="0" style="text-anchor: middle;">500,000</text></g><g class="tick" transform="translate(630,0)" style="opacity: 1;"><line y2="6" x2="0" class="axis-line"/><text dy=".71em" y="9" x="0" style="text-anchor: middle;">550,000</text></g><g class="tick" transform="translate(700,0)" style="opacity: 1;"><line y2="6" x2="0" class="axis-line"/><text dy=".71em" y="9" x="0" style="text-anchor: middle;">600,000</text></g><g class="tick" transform="translate(770,0)" style="opacity: 1;"><line y2="6" x2="0" class="axis-line"/><text dy=".71em" y="9" x="0" style="text-anchor: middle;">650,000</text></g><g class="tick" transform="translate(840,0)" style="opacity: 1;"><line y2="6" x2="0" class="axis-line"/><text dy=".71em" y="9" x="0" style="text-anchor: middle;">700,000</text></g><path class="axis-path" d="M0,6V0H840V6"/><text x="420" y="40" style="text-anchor: middle;">Number of binds</text></g><g class="y axis"><g class="tick" transform="translate(0,362.80021805477753)" style="opacity: 1;"><line x2="-6" y2="0" class="axis-line"/><text dy=".32em" x="-9" y="0" style="text-anchor: end;">0.50</text></g><g class="tick" transform="translate(0,307.31456632890126)" style="opacity: 1;"><line x2="-6" y2="0" class="axis-line"/><text dy=".32em" x="-9" y="0" style="text-anchor: end;">1.00</text></g><g class="tick" transform="translate(0,251.82891460302503)" style="opacity: 1;"><line x2="-6" y2="0" class="axis-line"/><text dy=".32em" x="-9" y="0" style="text-anchor: end;">1.50</text></g><g class="tick" transform="translate(0,196.3432628771488)" style="opacity: 1;"><line x2="-6" y2="0" class="axis-line"/><text dy=".32em" x="-9" y="0" style="text-anchor: end;">2.00</text></g><g class="tick" transform="translate(0,140.85761115127252)" style="opacity: 1;"><line x2="-6" y2="0" class="axis-line"/><text dy=".32em" x="-9" y="0" style="text-anchor: end;">2.50</text></g><g class="tick" transform="translate(0,85.37195942539633)" style="opacity: 1;"><line x2="-6" y2="0" class="axis-line"/><text dy=".32em" x="-9" y="0" style="text-anchor: end;">3.00</text></g><g class="tick" transform="translate(0,29.886307699520074)" style="opacity: 1;"><line x2="-6" y2="0" class="axis-line"/><text dy=".32em" x="-9" y="0" style="text-anchor: end;">3.50</text></g><path class="axis-path" d="M-6,0H0V400H-6"/><text transform="rotate(-90)" y="6" dy=".71em" style="text-anchor: end;">Mean running time (seconds)</text></g><g class="data-series-0"><circle cx="0" cy="365.24625844996933" r="3"/><circle cx="140" cy="309.5955768105573" r="3"/><circle cx="280" cy="287.15952083959183" r="3"/><circle cx="420" cy="205.10806461624327" r="3"/><circle cx="560" cy="122.10974277586071" r="3"/><circle cx="700" cy="98.87943539769415" r="3"/><circle cx="840" cy="0" r="3"/><path class="error-bar" x="0" y="365.24625844996933" d="M 0 365.24625844996933 V 357.4946670127256 h -3 h 6 h -3 V 372.99784988721314 h -3 h 6"/><path class="error-bar" x="140" y="309.5955768105573" d="M 140 309.5955768105573 V 275.99927171574865 h -3 h 6 h -3 V 343.1918819053659 h -3 h 6"/><path class="error-bar" x="280" y="287.15952083959183" d="M 280 287.15952083959183 V 283.40506783771656 h -3 h 6 h -3 V 290.9139738414672 h -3 h 6"/><path class="error-bar" x="420" y="205.10806461624327" d="M 420 205.10806461624327 V 160.72090357707927 h -3 h 6 h -3 V 249.49522565540732 h -3 h 6"/><path class="error-bar" x="560" y="122.10974277586071" d="M 560 122.10974277586071 V 70.86809267092443 h -3 h 6 h -3 V 173.35139288079694 h -3 h 6"/><path class="error-bar" x="700" y="98.87943539769415" d="M 700 98.87943539769415 V 89.94254602919409 h -3 h 6 h -3 V 107.8163247661942 h -3 h 6"/><path class="error-bar" x="840" y="0" d="M 840 0 V -53.490939983086335 h -3 h 6 h -3 V 53.490939983086385 h -3 h 6"/><path class="line" d="M0,365.24625844996933L140,309.5955768105573L280,287.15952083959183L420,205.10806461624327L560,122.10974277586071L700,98.87943539769415L840,0"/></g><g class="data-series-1"><circle cx="0" cy="400" r="3"/><circle cx="140" cy="386.00683998426643" r="3"/><circle cx="280" cy="368.6261631912833" r="3"/><circle cx="420" cy="352.57322870575376" r="3"/><circle cx="560" cy="329.2559548096927" r="3"/><circle cx="700" cy="316.9764762076448" r="3"/><circle cx="840" cy="297.1203936744287" r="3"/><path class="error-bar" x="0" y="400" d="M 0 400 V 397.81086283711494 h -3 h 6 h -3 V 402.18913716288506 h -3 h 6"/><path class="error-bar" x="140" y="386.00683998426643" d="M 140 386.00683998426643 V 383.9027863849841 h -3 h 6 h -3 V 388.1108935835488 h -3 h 6"/><path class="error-bar" x="280" y="368.6261631912833" d="M 280 368.6261631912833 V 364.0463845154578 h -3 h 6 h -3 V 373.2059418671087 h -3 h 6"/><path class="error-bar" x="420" y="352.57322870575376" d="M 420 352.57322870575376 V 347.6096283390427 h -3 h 6 h -3 V 357.53682907246474 h -3 h 6"/><path class="error-bar" x="560" y="329.2559548096927" d="M 560 329.2559548096927 V 309.0491172474521 h -3 h 6 h -3 V 349.46279237193323 h -3 h 6"/><path class="error-bar" x="700" y="316.9764762076448" d="M 700 316.9764762076448 V 309.07908250173637 h -3 h 6 h -3 V 324.8738699135532 h -3 h 6"/><path class="error-bar" x="840" y="297.1203936744287" d="M 840 297.1203936744287 V 284.3782169536099 h -3 h 6 h -3 V 309.8625703952476 h -3 h 6"/><path class="line" d="M0,400L140,386.00683998426643L280,368.6261631912833L420,352.57322870575376L560,329.2559548096927L700,316.9764762076448L840,297.1203936744287"/></g><g class="legend" transform="translate(50, 50)"><rect x="0" y="0" width="15" height="15" class="data-series-0"/><rect x="0" y="20" width="15" height="15" class="data-series-1"/><text x="24" y="13">Original FreeT</text><text x="24" y="33">FreeT2</text></g></g></svg>