<svg xmlns="http://www.w3.org/2000/svg" width="960" height="500"><defs><style type="text/css">
.background {
  fill: white;
}

text {
  font-size: 14px;
  font-family: sans-serif;
}

.axis-path,
.axis-line {
  fill: none;
  stroke: #000;
  stroke-width: 1px;
  shape-rendering: crispEdges;
}

.line {
  fill: none;
  stroke-width: 1.5px;
}

.data-series-0 {
  stroke: steelblue;
  fill: steelblue;
}

.data-series-1 {
  stroke: crimson;
  fill: crimson;
}

.data-series-2 {
  stroke: mediumseagreen;
  fill: mediumseagreen;
}

.data-series-3 {
  stroke: mediumslateblue;
  fill: mediumslateblue;
}

.data-series-4 {
  stroke: goldenrod;
  fill: goldenrod;
}

.error-bar {
  fill: none;
}
</style></defs><rect width="960" height="500" class="background"/><g transform="translate(80,40)"><g transform="translate(420, 0)"><text style="text-anchor: middle; font-size: 28px;">Right associated binds (1 input per size)</text></g><g class="x axis" transform="translate(0,400)"><g class="tick" transform="translate(0,0)" style="opacity: 1;"><line y2="6" x2="0" class="axis-line"/><text dy=".71em" y="9" x="0" style="text-anchor: middle;">100,000</text></g><g class="tick" transform="translate(70,0)" style="opacity: 1;"><line y2="6" x2="0" class="axis-line"/><text dy=".71em" y="9" x="0" style="text-anchor: middle;">150,000</text></g><g class="tick" transform="translate(140,0)" style="opacity: 1;"><line y2="6" x2="0" class="axis-line"/><text dy=".71em" y="9" x="0" style="text-anchor: middle;">200,000</text></g><g class="tick" transform="translate(210,0)" style="opacity: 1;"><line y2="6" x2="0" class="axis-line"/><text dy=".71em" y="9" x="0" style="text-anchor: middle;">250,000</text></g><g class="tick" transform="translate(280,0)" style="opacity: 1;"><line y2="6" x2="0" class="axis-line"/><text dy=".71em" y="9" x="0" style="text-anchor: middle;">300,000</text></g><g class="tick" transform="translate(350,0)" style="opacity: 1;"><line y2="6" x2="0" class="axis-line"/><text dy=".71em" y="9" x="0" style="text-anchor: middle;">350,000</text></g><g class="tick" transform="translate(420,0)" style="opacity: 1;"><line y2="6" x2="0" class="axis-line"/><text dy=".71em" y="9" x="0" style="text-anchor: middle;">400,000</text></g><g class="tick" transform="translate(490.00000000000006,0)" style="opacity: 1;"><line y2="6" x2="0" class="axis-line"/><text dy=".71em" y="9" x="0" style="text-anchor: middle;">450,000</text></g><g class="tick" transform="translate(560,0)" style="opacity: 1;"><line y2="6" x2="0" class="axis-line"/><text dy=".71em" y="9" x="0" style="text-anchor: middle;">500,000</text></g><g class="tick" transform="translate(630,0)" style="opacity: 1;"><line y2="6" x2="0" class="axis-line"/><text dy=".71em" y="9" x="0" style="text-anchor: middle;">550,000</text></g><g class="tick" transform="translate(700,0)" style="opacity: 1;"><line y2="6" x2="0" class="axis-line"/><text dy=".71em" y="9" x="0" style="text-anchor: middle;">600,000</text></g><g class="tick" transform="translate(770,0)" style="opacity: 1;"><line y2="6" x2="0" class="axis-line"/><text dy=".71em" y="9" x="0" style="text-anchor: middle;">650,000</text></g><g class="tick" transform="translate(840,0)" style="opacity: 1;"><line y2="6" x2="0" class="axis-line"/><text dy=".71em" y="9" x="0" style="text-anchor: middle;">700,000</text></g><path class="axis-path" d="M0,6V0H840V6"/><text x="420" y="40" style="text-anchor: middle;">Number of binds</text></g><g class="y axis"><g class="tick" transform="translate(0,373.4966364412101)" style="opacity: 1;"><line x2="-6" y2="0" class="axis-line"/><text dy=".32em" x="-9" y="0" style="text-anchor: end;">0.20</text></g><g class="tick" transform="translate(0,342.2525537078979)" style="opacity: 1;"><line x2="-6" y2="0" class="axis-line"/><text dy=".32em" x="-9" y="0" style="text-anchor: end;">0.40</text></g><g class="tick" transform="translate(0,311.0084709745857)" style="opacity: 1;"><line x2="-6" y2="0" class="axis-line"/><text dy=".32em" x="-9" y="0" style="text-anchor: end;">0.60</text></g><g class="tick" transform="translate(0,279.7643882412735)" style="opacity: 1;"><line x2="-6" y2="0" class="axis-line"/><text dy=".32em" x="-9" y="0" style="text-anchor: end;">0.80</text></g><g class="tick" transform="translate(0,248.52030550796127)" style="opacity: 1;"><line x2="-6" y2="0" class="axis-line"/><text dy=".32em" x="-9" y="0" style="text-anchor: end;">1.00</text></g><g class="tick" transform="translate(0,217.27622277464906)" style="opacity: 1;"><line x2="-6" y2="0" class="axis-line"/><text dy=".32em" x="-9" y="0" style="text-anchor: end;">1.20</text></g><g class="tick" transform="translate(0,186.0321400413369)" style="opacity: 1;"><line x2="-6" y2="0" class="axis-line"/><text dy=".32em" x="-9" y="0" style="text-anchor: end;">1.40</text></g><g class="tick" transform="translate(0,154.78805730802466)" style="opacity: 1;"><line x2="-6" y2="0" class="axis-line"/><text dy=".32em" x="-9" y="0" style="text-anchor: end;">1.60</text></g><g class="tick" transform="translate(0,123.54397457471245)" style="opacity: 1;"><line x2="-6" y2="0" class="axis-line"/><text dy=".32em" x="-9" y="0" style="text-anchor: end;">1.80</text></g><g class="tick" transform="translate(0,92.29989184140028)" style="opacity: 1;"><line x2="-6" y2="0" class="axis-line"/><text dy=".32em" x="-9" y="0" style="text-anchor: end;">2.00</text></g><g class="tick" transform="translate(0,61.05580910808808)" style="opacity: 1;"><line x2="-6" y2="0" class="axis-line"/><text dy=".32em" x="-9" y="0" style="text-anchor: end;">2.20</text></g><g class="tick" transform="translate(0,29.811726374775915)" style="opacity: 1;"><line x2="-6" y2="0" class="axis-line"/><text dy=".32em" x="-9" y="0" style="text-anchor: end;">2.40</text></g><path class="axis-path" d="M-6,0H0V400H-6"/><text transform="rotate(-90)" y="6" dy=".71em" style="text-anchor: end;">Mean running time (seconds)</text></g><g class="data-series-0"><circle cx="0" cy="356.02860976087504" r="3"/><circle cx="140" cy="293.64907217842125" r="3"/><circle cx="280" cy="245.8078962826844" r="3"/><circle cx="420" cy="193.26986174875458" r="3"/><circle cx="560" cy="68.4678222650612" r="3"/><circle cx="700" cy="7.554875564032715" r="3"/><circle cx="840" cy="0" r="3"/><path class="error-bar" x="0" y="356.02860976087504" d="M 0 356.02860976087504 V 344.543159224221 h -3 h 6 h -3 V 367.51406029752917 h -3 h 6"/><path class="error-bar" x="140" y="293.64907217842125" d="M 140 293.64907217842125 V 277.96594033527623 h -3 h 6 h -3 V 309.33220402156627 h -3 h 6"/><path class="error-bar" x="280" y="245.8078962826844" d="M 280 245.8078962826844 V 214.9246602981807 h -3 h 6 h -3 V 276.6911322671881 h -3 h 6"/><path class="error-bar" x="420" y="193.26986174875458" d="M 420 193.26986174875458 V 164.44069320334796 h -3 h 6 h -3 V 222.0990302941612 h -3 h 6"/><path class="error-bar" x="560" y="68.4678222650612" d="M 560 68.4678222650612 V -4.188323984155229 h -3 h 6 h -3 V 141.1239685142776 h -3 h 6"/><path class="error-bar" x="700" y="7.554875564032715" d="M 700 7.554875564032715 V -45.06232450100125 h -3 h 6 h -3 V 60.17207562906668 h -3 h 6"/><path class="error-bar" x="840" y="0" d="M 840 0 V -41.47600712747925 h -3 h 6 h -3 V 41.47600712747921 h -3 h 6"/><path class="line" d="M0,356.02860976087504L140,293.64907217842125L280,245.8078962826844L420,193.26986174875458L560,68.4678222650612L700,7.554875564032715L840,0"/></g><g class="data-series-1"><circle cx="0" cy="368.06098218271353" r="3"/><circle cx="140" cy="329.8299405629154" r="3"/><circle cx="280" cy="290.8335980527976" r="3"/><circle cx="420" cy="262.3399872161564" r="3"/><circle cx="560" cy="224.3091739849488" r="3"/><circle cx="700" cy="189.27630006216017" r="3"/><circle cx="840" cy="156.77031303762655" r="3"/><path class="error-bar" x="0" y="368.06098218271353" d="M 0 368.06098218271353 V 365.23745576398164 h -3 h 6 h -3 V 370.8845086014454 h -3 h 6"/><path class="error-bar" x="140" y="329.8299405629154" d="M 140 329.8299405629154 V 325.535796097168 h -3 h 6 h -3 V 334.12408502866276 h -3 h 6"/><path class="error-bar" x="280" y="290.8335980527976" d="M 280 290.8335980527976 V 282.74137026276003 h -3 h 6 h -3 V 298.92582584283514 h -3 h 6"/><path class="error-bar" x="420" y="262.3399872161564" d="M 420 262.3399872161564 V 253.5769395834957 h -3 h 6 h -3 V 271.103034848817 h -3 h 6"/><path class="error-bar" x="560" y="224.3091739849488" d="M 560 224.3091739849488 V 218.8354594713261 h -3 h 6 h -3 V 229.78288849857148 h -3 h 6"/><path class="error-bar" x="700" y="189.27630006216017" d="M 700 189.27630006216017 V 178.98982316158637 h -3 h 6 h -3 V 199.56277696273395 h -3 h 6"/><path class="error-bar" x="840" y="156.77031303762655" d="M 840 156.77031303762655 V 147.56834032000788 h -3 h 6 h -3 V 165.9722857552452 h -3 h 6"/><path class="line" d="M0,368.06098218271353L140,329.8299405629154L280,290.8335980527976L420,262.3399872161564L560,224.3091739849488L700,189.27630006216017L840,156.77031303762655"/></g><g class="data-series-2"><circle cx="0" cy="400" r="3"/><circle cx="140" cy="393.58779479301853" r="3"/><circle cx="280" cy="387.91164251166794" r="3"/><circle cx="420" cy="384.73202424131927" r="3"/><circle cx="560" cy="380.9384636972745" r="3"/><circle cx="700" cy="376.328965213301" r="3"/><circle cx="840" cy="371.65728077039125" r="3"/><path class="error-bar" x="0" y="400" d="M 0 400 V 399.95322478537054 h -3 h 6 h -3 V 400.0467752146294 h -3 h 6"/><path class="error-bar" x="140" y="393.58779479301853" d="M 140 393.58779479301853 V 393.405202062679 h -3 h 6 h -3 V 393.77038752335807 h -3 h 6"/><path class="error-bar" x="280" y="387.91164251166794" d="M 280 387.91164251166794 V 387.4766137484959 h -3 h 6 h -3 V 388.34667127484 h -3 h 6"/><path class="error-bar" x="420" y="384.73202424131927" d="M 420 384.73202424131927 V 383.68539400525043 h -3 h 6 h -3 V 385.77865447738816 h -3 h 6"/><path class="error-bar" x="560" y="380.9384636972745" d="M 560 380.9384636972745 V 380.74970966169735 h -3 h 6 h -3 V 381.1272177328517 h -3 h 6"/><path class="error-bar" x="700" y="376.328965213301" d="M 700 376.328965213301 V 376.0868843956389 h -3 h 6 h -3 V 376.5710460309631 h -3 h 6"/><path class="error-bar" x="840" y="371.65728077039125" d="M 840 371.65728077039125 V 371.4586321322694 h -3 h 6 h -3 V 371.85592940851313 h -3 h 6"/><path class="line" d="M0,400L140,393.58779479301853L280,387.91164251166794L420,384.73202424131927L560,380.9384636972745L700,376.328965213301L840,371.65728077039125"/></g><g class="legend" transform="translate(50, 50)"><rect x="0" y="0" width="15" height="15" class="data-series-0"/><rect x="0" y="20" width="15" height="15" class="data-series-1"/><rect x="0" y="40" width="15" height="15" class="data-series-2"/><text x="24" y="13">Original FreeT</text><text x="24" y="33">Rec CPS FreeT</text><text x="24" y="53">Data CPS FreeT</text></g></g></svg>