<svg xmlns="http://www.w3.org/2000/svg" width="960" height="500"><defs><style type="text/css">
.background {
  fill: white;
}

text {
  font-size: 14px;
  font-family: sans-serif;
}

.axis-path,
.axis-line {
  fill: none;
  stroke: #000;
  stroke-width: 1px;
  shape-rendering: crispEdges;
}

.line {
  fill: none;
  stroke-width: 1.5px;
}

.data-series-0 {
  stroke: steelblue;
  fill: steelblue;
}

.data-series-1 {
  stroke: crimson;
  fill: crimson;
}

.data-series-2 {
  stroke: mediumseagreen;
  fill: mediumseagreen;
}

.data-series-3 {
  stroke: mediumslateblue;
  fill: mediumslateblue;
}

.data-series-4 {
  stroke: goldenrod;
  fill: goldenrod;
}

.error-bar {
  fill: none;
}
</style></defs><rect width="960" height="500" class="background"/><g transform="translate(80,40)"><g transform="translate(420, 0)"><text style="text-anchor: middle; font-size: 28px;">Right associated binds (1 input per size)</text></g><g class="x axis" transform="translate(0,400)"><g class="tick" transform="translate(0,0)" style="opacity: 1;"><line y2="6" x2="0" class="axis-line"/><text dy=".71em" y="9" x="0" style="text-anchor: middle;">100,000</text></g><g class="tick" transform="translate(70,0)" style="opacity: 1;"><line y2="6" x2="0" class="axis-line"/><text dy=".71em" y="9" x="0" style="text-anchor: middle;">150,000</text></g><g class="tick" transform="translate(140,0)" style="opacity: 1;"><line y2="6" x2="0" class="axis-line"/><text dy=".71em" y="9" x="0" style="text-anchor: middle;">200,000</text></g><g class="tick" transform="translate(210,0)" style="opacity: 1;"><line y2="6" x2="0" class="axis-line"/><text dy=".71em" y="9" x="0" style="text-anchor: middle;">250,000</text></g><g class="tick" transform="translate(280,0)" style="opacity: 1;"><line y2="6" x2="0" class="axis-line"/><text dy=".71em" y="9" x="0" style="text-anchor: middle;">300,000</text></g><g class="tick" transform="translate(350,0)" style="opacity: 1;"><line y2="6" x2="0" class="axis-line"/><text dy=".71em" y="9" x="0" style="text-anchor: middle;">350,000</text></g><g class="tick" transform="translate(420,0)" style="opacity: 1;"><line y2="6" x2="0" class="axis-line"/><text dy=".71em" y="9" x="0" style="text-anchor: middle;">400,000</text></g><g class="tick" transform="translate(490.00000000000006,0)" style="opacity: 1;"><line y2="6" x2="0" class="axis-line"/><text dy=".71em" y="9" x="0" style="text-anchor: middle;">450,000</text></g><g class="tick" transform="translate(560,0)" style="opacity: 1;"><line y2="6" x2="0" class="axis-line"/><text dy=".71em" y="9" x="0" style="text-anchor: middle;">500,000</text></g><g class="tick" transform="translate(630,0)" style="opacity: 1;"><line y2="6" x2="0" class="axis-line"/><text dy=".71em" y="9" x="0" style="text-anchor: middle;">550,000</text></g><g class="tick" transform="translate(700,0)" style="opacity: 1;"><line y2="6" x2="0" class="axis-line"/><text dy=".71em" y="9" x="0" style="text-anchor: middle;">600,000</text></g><g class="tick" transform="translate(770,0)" style="opacity: 1;"><line y2="6" x2="0" class="axis-line"/><text dy=".71em" y="9" x="0" style="text-anchor: middle;">650,000</text></g><g class="tick" transform="translate(840,0)" style="opacity: 1;"><line y2="6" x2="0" class="axis-line"/><text dy=".71em" y="9" x="0" style="text-anchor: middle;">700,000</text></g><path class="axis-path" d="M0,6V0H840V6"/><text x="420" y="40" style="text-anchor: middle;">Number of binds</text></g><g class="y axis"><g class="tick" transform="translate(0,397.16562242082875)" style="opacity: 1;"><line x2="-6" y2="0" class="axis-line"/><text dy=".32em" x="-9" y="0" style="text-anchor: end;">0.20</text></g><g class="tick" transform="translate(0,360.6757672260445)" style="opacity: 1;"><line x2="-6" y2="0" class="axis-line"/><text dy=".32em" x="-9" y="0" style="text-anchor: end;">0.40</text></g><g class="tick" transform="translate(0,324.1859120312603)" style="opacity: 1;"><line x2="-6" y2="0" class="axis-line"/><text dy=".32em" x="-9" y="0" style="text-anchor: end;">0.60</text></g><g class="tick" transform="translate(0,287.69605683647603)" style="opacity: 1;"><line x2="-6" y2="0" class="axis-line"/><text dy=".32em" x="-9" y="0" style="text-anchor: end;">0.80</text></g><g class="tick" transform="translate(0,251.2062016416918)" style="opacity: 1;"><line x2="-6" y2="0" class="axis-line"/><text dy=".32em" x="-9" y="0" style="text-anchor: end;">1.00</text></g><g class="tick" transform="translate(0,214.71634644690755)" style="opacity: 1;"><line x2="-6" y2="0" class="axis-line"/><text dy=".32em" x="-9" y="0" style="text-anchor: end;">1.20</text></g><g class="tick" transform="translate(0,178.22649125212328)" style="opacity: 1;"><line x2="-6" y2="0" class="axis-line"/><text dy=".32em" x="-9" y="0" style="text-anchor: end;">1.40</text></g><g class="tick" transform="translate(0,141.736636057339)" style="opacity: 1;"><line x2="-6" y2="0" class="axis-line"/><text dy=".32em" x="-9" y="0" style="text-anchor: end;">1.60</text></g><g class="tick" transform="translate(0,105.24678086255474)" style="opacity: 1;"><line x2="-6" y2="0" class="axis-line"/><text dy=".32em" x="-9" y="0" style="text-anchor: end;">1.80</text></g><g class="tick" transform="translate(0,68.75692566777052)" style="opacity: 1;"><line x2="-6" y2="0" class="axis-line"/><text dy=".32em" x="-9" y="0" style="text-anchor: end;">2.00</text></g><g class="tick" transform="translate(0,32.26707047298625)" style="opacity: 1;"><line x2="-6" y2="0" class="axis-line"/><text dy=".32em" x="-9" y="0" style="text-anchor: end;">2.20</text></g><path class="axis-path" d="M-6,0H0V400H-6"/><text transform="rotate(-90)" y="6" dy=".71em" style="text-anchor: end;">Mean running time (seconds)</text></g><g class="data-series-0"><circle cx="0" cy="374.51603950330804" r="3"/><circle cx="140" cy="320.368520835509" r="3"/><circle cx="280" cy="234.5775801645646" r="3"/><circle cx="420" cy="205.8179621313456" r="3"/><circle cx="560" cy="93.64043963644293" r="3"/><circle cx="700" cy="8.603880558725807" r="3"/><circle cx="840" cy="0" r="3"/><path class="error-bar" x="0" y="374.51603950330804" d="M 0 374.51603950330804 V 360.9558740222819 h -3 h 6 h -3 V 388.0762049843342 h -3 h 6"/><path class="error-bar" x="140" y="320.368520835509" d="M 140 320.368520835509 V 306.95365070484036 h -3 h 6 h -3 V 333.78339096617765 h -3 h 6"/><path class="error-bar" x="280" y="234.5775801645646" d="M 280 234.5775801645646 V 187.94181050869142 h -3 h 6 h -3 V 281.21334982043777 h -3 h 6"/><path class="error-bar" x="420" y="205.8179621313456" d="M 420 205.8179621313456 V 181.40723857196446 h -3 h 6 h -3 V 230.22868569072673 h -3 h 6"/><path class="error-bar" x="560" y="93.64043963644293" d="M 560 93.64043963644293 V 36.92149064561021 h -3 h 6 h -3 V 150.35938862727565 h -3 h 6"/><path class="error-bar" x="700" y="8.603880558725807" d="M 700 8.603880558725807 V -12.080159884255615 h -3 h 6 h -3 V 29.28792100170723 h -3 h 6"/><path class="error-bar" x="840" y="0" d="M 840 0 V -28.33952856452049 h -3 h 6 h -3 V 28.33952856452049 h -3 h 6"/><path class="line" d="M0,374.51603950330804L140,320.368520835509L280,234.5775801645646L420,205.8179621313456L560,93.64043963644293L700,8.603880558725807L840,0"/></g><g class="data-series-1"><circle cx="0" cy="400" r="3"/><circle cx="140" cy="367.173384260997" r="3"/><circle cx="280" cy="333.7138843674654" r="3"/><circle cx="420" cy="299.0313403724178" r="3"/><circle cx="560" cy="260.54705824023176" r="3"/><circle cx="700" cy="233.0112421312436" r="3"/><circle cx="840" cy="199.75851921010434" r="3"/><path class="error-bar" x="0" y="400" d="M 0 400 V 398.1825146690477 h -3 h 6 h -3 V 401.81748533095225 h -3 h 6"/><path class="error-bar" x="140" y="367.173384260997" d="M 140 367.173384260997 V 364.4583591852138 h -3 h 6 h -3 V 369.8884093367801 h -3 h 6"/><path class="error-bar" x="280" y="333.7138843674654" d="M 280 333.7138843674654 V 329.22167405653107 h -3 h 6 h -3 V 338.20609467839984 h -3 h 6"/><path class="error-bar" x="420" y="299.0313403724178" d="M 420 299.0313403724178 V 293.46522231295927 h -3 h 6 h -3 V 304.59745843187625 h -3 h 6"/><path class="error-bar" x="560" y="260.54705824023176" d="M 560 260.54705824023176 V 251.81424192482203 h -3 h 6 h -3 V 269.27987455564147 h -3 h 6"/><path class="error-bar" x="700" y="233.0112421312436" d="M 700 233.0112421312436 V 227.90902082652943 h -3 h 6 h -3 V 238.11346343595767 h -3 h 6"/><path class="error-bar" x="840" y="199.75851921010434" d="M 840 199.75851921010434 V 193.18077112677776 h -3 h 6 h -3 V 206.33626729343098 h -3 h 6"/><path class="line" d="M0,400L140,367.173384260997L280,333.7138843674654L420,299.0313403724178L560,260.54705824023176L700,233.0112421312436L840,199.75851921010434"/></g><g class="legend" transform="translate(50, 50)"><rect x="0" y="0" width="15" height="15" class="data-series-0"/><rect x="0" y="20" width="15" height="15" class="data-series-1"/><text x="24" y="13">Original FreeT</text><text x="24" y="33">Codensity FreeT</text></g></g></svg>