<svg xmlns="http://www.w3.org/2000/svg" width="960" height="500"><defs><style type="text/css">
.background {
  fill: white;
}

text {
  font-size: 14px;
  font-family: sans-serif;
}

.axis-path,
.axis-line {
  fill: none;
  stroke: #000;
  stroke-width: 1px;
  shape-rendering: crispEdges;
}

.line {
  fill: none;
  stroke-width: 1.5px;
}

.data-series-0 {
  stroke: steelblue;
  fill: steelblue;
}

.data-series-1 {
  stroke: crimson;
  fill: crimson;
}

.data-series-2 {
  stroke: mediumseagreen;
  fill: mediumseagreen;
}

.data-series-3 {
  stroke: mediumslateblue;
  fill: mediumslateblue;
}

.data-series-4 {
  stroke: goldenrod;
  fill: goldenrod;
}

.error-bar {
  fill: none;
}
</style></defs><rect width="960" height="500" class="background"/><g transform="translate(80,40)"><g transform="translate(420, 0)"><text style="text-anchor: middle; font-size: 28px;">Right associated binds (1 input per size)</text></g><g class="x axis" transform="translate(0,400)"><g class="tick" transform="translate(0,0)" style="opacity: 1;"><line y2="6" x2="0" class="axis-line"/><text dy=".71em" y="9" x="0" style="text-anchor: middle;">100,000</text></g><g class="tick" transform="translate(70,0)" style="opacity: 1;"><line y2="6" x2="0" class="axis-line"/><text dy=".71em" y="9" x="0" style="text-anchor: middle;">150,000</text></g><g class="tick" transform="translate(140,0)" style="opacity: 1;"><line y2="6" x2="0" class="axis-line"/><text dy=".71em" y="9" x="0" style="text-anchor: middle;">200,000</text></g><g class="tick" transform="translate(210,0)" style="opacity: 1;"><line y2="6" x2="0" class="axis-line"/><text dy=".71em" y="9" x="0" style="text-anchor: middle;">250,000</text></g><g class="tick" transform="translate(280,0)" style="opacity: 1;"><line y2="6" x2="0" class="axis-line"/><text dy=".71em" y="9" x="0" style="text-anchor: middle;">300,000</text></g><g class="tick" transform="translate(350,0)" style="opacity: 1;"><line y2="6" x2="0" class="axis-line"/><text dy=".71em" y="9" x="0" style="text-anchor: middle;">350,000</text></g><g class="tick" transform="translate(420,0)" style="opacity: 1;"><line y2="6" x2="0" class="axis-line"/><text dy=".71em" y="9" x="0" style="text-anchor: middle;">400,000</text></g><g class="tick" transform="translate(490.00000000000006,0)" style="opacity: 1;"><line y2="6" x2="0" class="axis-line"/><text dy=".71em" y="9" x="0" style="text-anchor: middle;">450,000</text></g><g class="tick" transform="translate(560,0)" style="opacity: 1;"><line y2="6" x2="0" class="axis-line"/><text dy=".71em" y="9" x="0" style="text-anchor: middle;">500,000</text></g><g class="tick" transform="translate(630,0)" style="opacity: 1;"><line y2="6" x2="0" class="axis-line"/><text dy=".71em" y="9" x="0" style="text-anchor: middle;">550,000</text></g><g class="tick" transform="translate(700,0)" style="opacity: 1;"><line y2="6" x2="0" class="axis-line"/><text dy=".71em" y="9" x="0" style="text-anchor: middle;">600,000</text></g><g class="tick" transform="translate(770,0)" style="opacity: 1;"><line y2="6" x2="0" class="axis-line"/><text dy=".71em" y="9" x="0" style="text-anchor: middle;">650,000</text></g><g class="tick" transform="translate(840,0)" style="opacity: 1;"><line y2="6" x2="0" class="axis-line"/><text dy=".71em" y="9" x="0" style="text-anchor: middle;">700,000</text></g><path class="axis-path" d="M0,6V0H840V6"/><text x="420" y="40" style="text-anchor: middle;">Number of binds</text></g><g class="y axis"><g class="tick" transform="translate(0,364.0718030655276)" style="opacity: 1;"><line x2="-6" y2="0" class="axis-line"/><text dy=".32em" x="-9" y="0" style="text-anchor: end;">0.40</text></g><g class="tick" transform="translate(0,326.19871254458116)" style="opacity: 1;"><line x2="-6" y2="0" class="axis-line"/><text dy=".32em" x="-9" y="0" style="text-anchor: end;">0.60</text></g><g class="tick" transform="translate(0,288.32562202363465)" style="opacity: 1;"><line x2="-6" y2="0" class="axis-line"/><text dy=".32em" x="-9" y="0" style="text-anchor: end;">0.80</text></g><g class="tick" transform="translate(0,250.4525315026882)" style="opacity: 1;"><line x2="-6" y2="0" class="axis-line"/><text dy=".32em" x="-9" y="0" style="text-anchor: end;">1.00</text></g><g class="tick" transform="translate(0,212.5794409817417)" style="opacity: 1;"><line x2="-6" y2="0" class="axis-line"/><text dy=".32em" x="-9" y="0" style="text-anchor: end;">1.20</text></g><g class="tick" transform="translate(0,174.70635046079522)" style="opacity: 1;"><line x2="-6" y2="0" class="axis-line"/><text dy=".32em" x="-9" y="0" style="text-anchor: end;">1.40</text></g><g class="tick" transform="translate(0,136.8332599398487)" style="opacity: 1;"><line x2="-6" y2="0" class="axis-line"/><text dy=".32em" x="-9" y="0" style="text-anchor: end;">1.60</text></g><g class="tick" transform="translate(0,98.96016941890223)" style="opacity: 1;"><line x2="-6" y2="0" class="axis-line"/><text dy=".32em" x="-9" y="0" style="text-anchor: end;">1.80</text></g><g class="tick" transform="translate(0,61.08707889795575)" style="opacity: 1;"><line x2="-6" y2="0" class="axis-line"/><text dy=".32em" x="-9" y="0" style="text-anchor: end;">2.00</text></g><g class="tick" transform="translate(0,23.213988377009187)" style="opacity: 1;"><line x2="-6" y2="0" class="axis-line"/><text dy=".32em" x="-9" y="0" style="text-anchor: end;">2.20</text></g><path class="axis-path" d="M-6,0H0V400H-6"/><text transform="rotate(-90)" y="6" dy=".71em" style="text-anchor: end;">Mean running time (seconds)</text></g><g class="data-series-0"><circle cx="0" cy="384.03541482959383" r="3"/><circle cx="140" cy="323.5808691699394" r="3"/><circle cx="280" cy="273.4574715610226" r="3"/><circle cx="420" cy="210.25068581064988" r="3"/><circle cx="560" cy="120.11605493380499" r="3"/><circle cx="700" cy="20.47443682769199" r="3"/><circle cx="840" cy="0" r="3"/><path class="error-bar" x="0" y="384.03541482959383" d="M 0 384.03541482959383 V 374.7644147557592 h -3 h 6 h -3 V 393.30641490342845 h -3 h 6"/><path class="error-bar" x="140" y="323.5808691699394" d="M 140 323.5808691699394 V 305.14100723070436 h -3 h 6 h -3 V 342.02073110917433 h -3 h 6"/><path class="error-bar" x="280" y="273.4574715610226" d="M 280 273.4574715610226 V 252.17626192591692 h -3 h 6 h -3 V 294.7386811961283 h -3 h 6"/><path class="error-bar" x="420" y="210.25068581064988" d="M 420 210.25068581064988 V 192.97256123788057 h -3 h 6 h -3 V 227.52881038341917 h -3 h 6"/><path class="error-bar" x="560" y="120.11605493380499" d="M 560 120.11605493380499 V 63.210816474648944 h -3 h 6 h -3 V 177.021293392961 h -3 h 6"/><path class="error-bar" x="700" y="20.47443682769199" d="M 700 20.47443682769199 V -17.920528399647395 h -3 h 6 h -3 V 58.869402055031415 h -3 h 6"/><path class="error-bar" x="840" y="0" d="M 840 0 V -9.873659790248457 h -3 h 6 h -3 V 9.873659790248501 h -3 h 6"/><path class="line" d="M0,384.03541482959383L140,323.5808691699394L280,273.4574715610226L420,210.25068581064988L560,120.11605493380499L700,20.47443682769199L840,0"/></g><g class="data-series-1"><circle cx="0" cy="400" r="3"/><circle cx="140" cy="346.31153009745753" r="3"/><circle cx="280" cy="310.2092728061916" r="3"/><circle cx="420" cy="263.8814585638037" r="3"/><circle cx="560" cy="255.24964154254008" r="3"/><circle cx="700" cy="179.48930171789505" r="3"/><circle cx="840" cy="105.25536496505099" r="3"/><path class="error-bar" x="0" y="400" d="M 0 400 V 393.0367115414107 h -3 h 6 h -3 V 406.9632884585894 h -3 h 6"/><path class="error-bar" x="140" y="346.31153009745753" d="M 140 346.31153009745753 V 328.0171834453389 h -3 h 6 h -3 V 364.60587674957605 h -3 h 6"/><path class="error-bar" x="280" y="310.2092728061916" d="M 280 310.2092728061916 V 291.34082318358793 h -3 h 6 h -3 V 329.0777224287952 h -3 h 6"/><path class="error-bar" x="420" y="263.8814585638037" d="M 420 263.8814585638037 V 243.6583975306446 h -3 h 6 h -3 V 284.10451959696286 h -3 h 6"/><path class="error-bar" x="560" y="255.24964154254008" d="M 560 255.24964154254008 V 251.14671224850488 h -3 h 6 h -3 V 259.3525708365753 h -3 h 6"/><path class="error-bar" x="700" y="179.48930171789505" d="M 700 179.48930171789505 V 130.68059791006328 h -3 h 6 h -3 V 228.29800552572684 h -3 h 6"/><path class="error-bar" x="840" y="105.25536496505099" d="M 840 105.25536496505099 V 54.48935793847775 h -3 h 6 h -3 V 156.02137199162422 h -3 h 6"/><path class="line" d="M0,400L140,346.31153009745753L280,310.2092728061916L420,263.8814585638037L560,255.24964154254008L700,179.48930171789505L840,105.25536496505099"/></g><g class="legend" transform="translate(50, 50)"><rect x="0" y="0" width="15" height="15" class="data-series-0"/><rect x="0" y="20" width="15" height="15" class="data-series-1"/><text x="24" y="13">Original FreeT</text><text x="24" y="33">Codensity FreeT</text></g></g></svg>