<svg xmlns="http://www.w3.org/2000/svg" width="960" height="500"><defs><style type="text/css">
.background {
  fill: white;
}

text {
  font-size: 14px;
  font-family: sans-serif;
}

.axis-path,
.axis-line {
  fill: none;
  stroke: #000;
  stroke-width: 1px;
  shape-rendering: crispEdges;
}

.line {
  fill: none;
  stroke-width: 1.5px;
}

.data-series-0 {
  stroke: steelblue;
  fill: steelblue;
}

.data-series-1 {
  stroke: crimson;
  fill: crimson;
}

.data-series-2 {
  stroke: mediumseagreen;
  fill: mediumseagreen;
}

.data-series-3 {
  stroke: mediumslateblue;
  fill: mediumslateblue;
}

.data-series-4 {
  stroke: goldenrod;
  fill: goldenrod;
}

.error-bar {
  fill: none;
}
</style></defs><rect width="960" height="500" class="background"/><g transform="translate(80,40)"><g transform="translate(420, 0)"><text style="text-anchor: middle; font-size: 28px;">Right associated binds (1 input per size)</text></g><g class="x axis" transform="translate(0,400)"><g class="tick" transform="translate(0,0)" style="opacity: 1;"><line y2="6" x2="0" class="axis-line"/><text dy=".71em" y="9" x="0" style="text-anchor: middle;">100,000</text></g><g class="tick" transform="translate(70,0)" style="opacity: 1;"><line y2="6" x2="0" class="axis-line"/><text dy=".71em" y="9" x="0" style="text-anchor: middle;">150,000</text></g><g class="tick" transform="translate(140,0)" style="opacity: 1;"><line y2="6" x2="0" class="axis-line"/><text dy=".71em" y="9" x="0" style="text-anchor: middle;">200,000</text></g><g class="tick" transform="translate(210,0)" style="opacity: 1;"><line y2="6" x2="0" class="axis-line"/><text dy=".71em" y="9" x="0" style="text-anchor: middle;">250,000</text></g><g class="tick" transform="translate(280,0)" style="opacity: 1;"><line y2="6" x2="0" class="axis-line"/><text dy=".71em" y="9" x="0" style="text-anchor: middle;">300,000</text></g><g class="tick" transform="translate(350,0)" style="opacity: 1;"><line y2="6" x2="0" class="axis-line"/><text dy=".71em" y="9" x="0" style="text-anchor: middle;">350,000</text></g><g class="tick" transform="translate(420,0)" style="opacity: 1;"><line y2="6" x2="0" class="axis-line"/><text dy=".71em" y="9" x="0" style="text-anchor: middle;">400,000</text></g><g class="tick" transform="translate(490.00000000000006,0)" style="opacity: 1;"><line y2="6" x2="0" class="axis-line"/><text dy=".71em" y="9" x="0" style="text-anchor: middle;">450,000</text></g><g class="tick" transform="translate(560,0)" style="opacity: 1;"><line y2="6" x2="0" class="axis-line"/><text dy=".71em" y="9" x="0" style="text-anchor: middle;">500,000</text></g><g class="tick" transform="translate(630,0)" style="opacity: 1;"><line y2="6" x2="0" class="axis-line"/><text dy=".71em" y="9" x="0" style="text-anchor: middle;">550,000</text></g><g class="tick" transform="translate(700,0)" style="opacity: 1;"><line y2="6" x2="0" class="axis-line"/><text dy=".71em" y="9" x="0" style="text-anchor: middle;">600,000</text></g><g class="tick" transform="translate(770,0)" style="opacity: 1;"><line y2="6" x2="0" class="axis-line"/><text dy=".71em" y="9" x="0" style="text-anchor: middle;">650,000</text></g><g class="tick" transform="translate(840,0)" style="opacity: 1;"><line y2="6" x2="0" class="axis-line"/><text dy=".71em" y="9" x="0" style="text-anchor: middle;">700,000</text></g><path class="axis-path" d="M0,6V0H840V6"/><text x="420" y="40" style="text-anchor: middle;">Number of binds</text></g><g class="y axis"><g class="tick" transform="translate(0,374.59081116947516)" style="opacity: 1;"><line x2="-6" y2="0" class="axis-line"/><text dy=".32em" x="-9" y="0" style="text-anchor: end;">0.50</text></g><g class="tick" transform="translate(0,332.34860029810585)" style="opacity: 1;"><line x2="-6" y2="0" class="axis-line"/><text dy=".32em" x="-9" y="0" style="text-anchor: end;">1.00</text></g><g class="tick" transform="translate(0,290.10638942673654)" style="opacity: 1;"><line x2="-6" y2="0" class="axis-line"/><text dy=".32em" x="-9" y="0" style="text-anchor: end;">1.50</text></g><g class="tick" transform="translate(0,247.86417855536723)" style="opacity: 1;"><line x2="-6" y2="0" class="axis-line"/><text dy=".32em" x="-9" y="0" style="text-anchor: end;">2.00</text></g><g class="tick" transform="translate(0,205.62196768399792)" style="opacity: 1;"><line x2="-6" y2="0" class="axis-line"/><text dy=".32em" x="-9" y="0" style="text-anchor: end;">2.50</text></g><g class="tick" transform="translate(0,163.37975681262859)" style="opacity: 1;"><line x2="-6" y2="0" class="axis-line"/><text dy=".32em" x="-9" y="0" style="text-anchor: end;">3.00</text></g><g class="tick" transform="translate(0,121.13754594125928)" style="opacity: 1;"><line x2="-6" y2="0" class="axis-line"/><text dy=".32em" x="-9" y="0" style="text-anchor: end;">3.50</text></g><g class="tick" transform="translate(0,78.89533506988995)" style="opacity: 1;"><line x2="-6" y2="0" class="axis-line"/><text dy=".32em" x="-9" y="0" style="text-anchor: end;">4.00</text></g><g class="tick" transform="translate(0,36.65312419852063)" style="opacity: 1;"><line x2="-6" y2="0" class="axis-line"/><text dy=".32em" x="-9" y="0" style="text-anchor: end;">4.50</text></g><path class="axis-path" d="M-6,0H0V400H-6"/><text transform="rotate(-90)" y="6" dy=".71em" style="text-anchor: end;">Mean running time (seconds)</text></g><g class="data-series-0"><circle cx="0" cy="374.54567323815166" r="3"/><circle cx="140" cy="341.6874911634182" r="3"/><circle cx="280" cy="314.0558834692461" r="3"/><circle cx="420" cy="264.50579891223697" r="3"/><circle cx="560" cy="166.92239638039163" r="3"/><circle cx="700" cy="158.30019702216424" r="3"/><circle cx="840" cy="107.9161965752141" r="3"/><path class="error-bar" x="0" y="374.54567323815166" d="M 0 374.54567323815166 V 367.356073106769 h -3 h 6 h -3 V 381.73527336953435 h -3 h 6"/><path class="error-bar" x="140" y="341.6874911634182" d="M 140 341.6874911634182 V 330.47684900618725 h -3 h 6 h -3 V 352.8981333206491 h -3 h 6"/><path class="error-bar" x="280" y="314.0558834692461" d="M 280 314.0558834692461 V 312.11137681373714 h -3 h 6 h -3 V 316.0003901247551 h -3 h 6"/><path class="error-bar" x="420" y="264.50579891223697" d="M 420 264.50579891223697 V 242.2920331773865 h -3 h 6 h -3 V 286.71956464708745 h -3 h 6"/><path class="error-bar" x="560" y="166.92239638039163" d="M 560 166.92239638039163 V 149.19903932594153 h -3 h 6 h -3 V 184.6457534348417 h -3 h 6"/><path class="error-bar" x="700" y="158.30019702216424" d="M 700 158.30019702216424 V 146.24949130430335 h -3 h 6 h -3 V 170.35090274002513 h -3 h 6"/><path class="error-bar" x="840" y="107.9161965752141" d="M 840 107.9161965752141 V 75.78087025394238 h -3 h 6 h -3 V 140.05152289648586 h -3 h 6"/><path class="line" d="M0,374.54567323815166L140,341.6874911634182L280,314.0558834692461L420,264.50579891223697L560,166.92239638039163L700,158.30019702216424L840,107.9161965752141"/></g><g class="data-series-1"><circle cx="0" cy="359.73091816762997" r="3"/><circle cx="140" cy="306.0172756331877" r="3"/><circle cx="280" cy="247.78911289346323" r="3"/><circle cx="420" cy="168.2889251602235" r="3"/><circle cx="560" cy="123.378929951026" r="3"/><circle cx="700" cy="57.58501528183104" r="3"/><circle cx="840" cy="0" r="3"/><path class="error-bar" x="0" y="359.73091816762997" d="M 0 359.73091816762997 V 355.7800420536969 h -3 h 6 h -3 V 363.68179428156304 h -3 h 6"/><path class="error-bar" x="140" y="306.0172756331877" d="M 140 306.0172756331877 V 301.69854363604 h -3 h 6 h -3 V 310.3360076303353 h -3 h 6"/><path class="error-bar" x="280" y="247.78911289346323" d="M 280 247.78911289346323 V 235.4405459890465 h -3 h 6 h -3 V 260.13767979787997 h -3 h 6"/><path class="error-bar" x="420" y="168.2889251602235" d="M 420 168.2889251602235 V 165.6838948311344 h -3 h 6 h -3 V 170.89395548931265 h -3 h 6"/><path class="error-bar" x="560" y="123.378929951026" d="M 560 123.378929951026 V 120.76735799016203 h -3 h 6 h -3 V 125.99050191188992 h -3 h 6"/><path class="error-bar" x="700" y="57.58501528183104" d="M 700 57.58501528183104 V 42.85393490495153 h -3 h 6 h -3 V 72.31609565871051 h -3 h 6"/><path class="error-bar" x="840" y="0" d="M 840 0 V -1.832880904279044 h -3 h 6 h -3 V 1.832880904279044 h -3 h 6"/><path class="line" d="M0,359.73091816762997L140,306.0172756331877L280,247.78911289346323L420,168.2889251602235L560,123.378929951026L700,57.58501528183104L840,0"/></g><g class="data-series-2"><circle cx="0" cy="400" r="3"/><circle cx="140" cy="385.56550472548633" r="3"/><circle cx="280" cy="363.28993911058484" r="3"/><circle cx="420" cy="341.4275219888862" r="3"/><circle cx="560" cy="321.97301392315126" r="3"/><circle cx="700" cy="290.1819937331521" r="3"/><circle cx="840" cy="284.64014032638045" r="3"/><path class="error-bar" x="0" y="400" d="M 0 400 V 398.2433773372403 h -3 h 6 h -3 V 401.7566226627597 h -3 h 6"/><path class="error-bar" x="140" y="385.56550472548633" d="M 140 385.56550472548633 V 384.97914206323173 h -3 h 6 h -3 V 386.1518673877409 h -3 h 6"/><path class="error-bar" x="280" y="363.28993911058484" d="M 280 363.28993911058484 V 354.321766270759 h -3 h 6 h -3 V 372.2581119504106 h -3 h 6"/><path class="error-bar" x="420" y="341.4275219888862" d="M 420 341.4275219888862 V 327.4440172541121 h -3 h 6 h -3 V 355.41102672366037 h -3 h 6"/><path class="error-bar" x="560" y="321.97301392315126" d="M 560 321.97301392315126 V 303.8870531270671 h -3 h 6 h -3 V 340.0589747192355 h -3 h 6"/><path class="error-bar" x="700" y="290.1819937331521" d="M 700 290.1819937331521 V 289.3005166509216 h -3 h 6 h -3 V 291.0634708153826 h -3 h 6"/><path class="error-bar" x="840" y="284.64014032638045" d="M 840 284.64014032638045 V 273.32779244405805 h -3 h 6 h -3 V 295.9524882087029 h -3 h 6"/><path class="line" d="M0,400L140,385.56550472548633L280,363.28993911058484L420,341.4275219888862L560,321.97301392315126L700,290.1819937331521L840,284.64014032638045"/></g><g class="legend" transform="translate(50, 50)"><rect x="0" y="0" width="15" height="15" class="data-series-0"/><rect x="0" y="20" width="15" height="15" class="data-series-1"/><rect x="0" y="40" width="15" height="15" class="data-series-2"/><text x="24" y="13">Original FreeT</text><text x="24" y="33">Rec CPS FreeT</text><text x="24" y="53">Data CPS FreeT</text></g></g></svg>